<?xml version="1.0" encoding="UTF-8"?>
<svg width="40px" height="40px" viewBox="0 0 40 40" version="1.1" xmlns="http://www.w3.org/2000/svg" xmlns:xlink="http://www.w3.org/1999/xlink">
    <!-- Generator: Sketch 52.2 (67145) - http://www.bohemiancoding.com/sketch -->
    <title>6 copy 5</title>
    <desc>Created with Sketch.</desc>
    <g id="6-copy-5" stroke="none" stroke-width="1" fill="none" fill-rule="evenodd">
        <g id="anniu" transform="translate(10.000000, 9.000000)" fill="#666666">
            <path d="M16.385778,10.3837134 C16.5269634,9.81544214 16.6681488,9.10510315 16.6681488,8.39476416 C16.6681488,7.25822175 16.385778,6.12167935 15.9622219,5.12720473 C15.5386657,4.13273013 14.9739241,3.28032331 14.1268118,2.42791651 C13.4208848,1.71757752 12.5737725,1.1493063 11.5854747,0.723102919 C10.597177,0.296899508 9.46769385,0.0127639012 8.33821072,0.0127639012 C7.20872758,0.0127639012 6.07924445,0.296899508 5.09094669,0.723102919 C4.10264895,1.14930633 3.11435121,1.71757752 2.40842423,2.56998431 C1.70249729,3.28032331 0.996570312,4.27479793 0.573014152,5.26927253 C0.149457968,6.26374713 0.00827257329,7.25822173 0.00827257329,8.53683193 C0.00827257329,9.53130653 0.149457968,10.3837134 0.431828758,11.2361202 C0.714199547,12.0885269 1.13775571,12.798866 1.70249729,13.509205 C2.26723886,14.219544 2.83198042,14.7878152 3.67909276,15.3560864 C4.38501971,15.9243576 5.23213208,16.2084932 6.07924445,16.4926288 L6.07924445,13.3671372 C5.09094671,12.9409338 4.38501974,12.2305948 3.82027816,11.378188 C3.25553658,10.5257812 2.97316581,9.53130653 2.97316581,8.53683193 C2.97316581,7.82649294 3.11435121,7.11615393 3.396722,6.40581493 C3.67909279,5.69547594 4.10264895,5.12720473 4.52620513,4.70100132 C4.94976132,4.1327301 5.51450287,3.84859452 6.22042982,3.56445891 C6.92635677,3.28032331 7.63228374,3.1382555 8.33821072,3.13825553 C9.04413769,3.13825555 9.75006464,3.28032333 10.4559916,3.56445891 C11.0207332,3.84859452 11.5854747,4.13273013 12.0090309,4.70100132 C12.4325871,5.12720473 12.8561432,5.69547592 13.138514,6.40581493 C13.4208848,7.11615393 13.5620702,7.82649294 13.5620702,8.53683193 L13.5620702,8.67889974 L16.385778,10.3837134 Z" id="路径"></path>
            <path d="M7.63228374,20.612595 C7.91465453,20.1863916 8.33821069,19.7601882 8.76176687,19.3339848 C9.04413766,19.0498492 9.46769382,18.6236458 10.0324354,18.1974424 C10.4559916,17.771239 11.0207331,17.4871034 11.5854747,17.0609 L13.844441,22.033273 C14.1268118,22.4594764 14.4091826,22.743612 14.9739241,22.8856798 C15.3974803,23.0277476 15.9622219,23.0277476 16.385778,22.743612 C16.8093342,22.4594764 17.091705,22.1753408 17.2328904,21.6070696 C17.3740758,21.1808662 17.3740758,20.612595 17.091705,20.1863916 L14.2679972,15.9243576 C14.9739241,15.7822898 15.5386657,15.640222 16.2445927,15.4981542 C16.9505196,15.3560864 17.5152612,15.3560864 17.9388174,15.3560864 L19.6330421,15.3560864 L7.49109835,5.83754374 L7.63228374,20.612595 Z" id="路径"></path>
        </g>
        <g id="bula-copy-2" fill="#E65151" fill-rule="nonzero" stroke="#FFFFFF" stroke-width="0.5">
            <path d="M20.0094787,-0.25 C31.1902039,-0.25 40.25,8.80979611 40.25,19.9905213 C40.25,31.1712465 31.1902039,40.2310427 20.0094787,40.2310427 C8.831865,40.2310427 -0.231042654,31.169619 -0.231042654,19.9905213 C-0.231042654,8.81142363 8.831865,-0.25 20.0094787,-0.25 Z M6.81497365,31.0636638 L31.0822207,6.79175085 C27.9962899,4.1975289 24.1141586,2.74763033 20.0094787,2.74763033 C10.4897067,2.74763033 2.77132701,10.4688998 2.77132686,19.9908032 C2.76675668,24.044545 4.20201153,27.9689372 6.81497365,31.0636638 Z M33.2039668,8.91261974 L8.93630509,33.1802815 C12.0309749,35.7933528 15.9510647,37.228673 20.0094787,37.228673 C29.5318227,37.228673 37.2523697,29.5095708 37.2523697,19.985782 C37.2523697,15.9303208 35.81597,12.006205 33.2039668,8.91261974 Z" id="形状"></path>
        </g>
    </g>
</svg>