<?xml version="1.0" encoding="UTF-8"?>
<svg width="40px" height="40px" viewBox="0 0 40 40" version="1.1" xmlns="http://www.w3.org/2000/svg" xmlns:xlink="http://www.w3.org/1999/xlink">
    <!-- Generator: Sketch 52.2 (67145) - http://www.bohemiancoding.com/sketch -->
    <title>6 copy 3</title>
    <desc>Created with Sketch.</desc>
    <g id="6-copy-3" stroke="none" stroke-width="1" fill="none" fill-rule="evenodd">
        <g id="zhuanzhang-2" transform="translate(9.000000, 10.000000)" fill="#666666" fill-rule="nonzero">
            <path d="M6.5591604,11.6089998 L8.30544097,10.7931411 L8.30544097,7.77473918 L0.0141315091,7.77473918 L0.0141315091,16.1771081 L3.17105964,15.1981027 C12.1032241,24.6608629 18.5712367,17.1559885 18.5712367,17.1559885 C9.17709779,20.0927545 6.5591604,11.6089998 6.5591604,11.6089998 Z M18.5699528,4.802202 C9.63791195,-4.66068315 3.1698994,2.84431627 3.1698994,2.84431627 C12.5636674,-0.0926998446 15.1818521,8.39130495 15.1818521,8.39130495 L13.719407,9.20728861 L13.719407,12.3350801 L21.9856212,12.3350801 L21.9856212,3.82319663 L18.5699528,4.802202 Z" id="形状"></path>
        </g>
        <g id="bula-copy-3" fill="#E65151" fill-rule="nonzero" stroke="#FFFFFF" stroke-width="0.5">
            <path d="M20.0094787,-0.25 C31.1902039,-0.25 40.25,8.80979611 40.25,19.9905213 C40.25,31.1712465 31.1902039,40.2310427 20.0094787,40.2310427 C8.831865,40.2310427 -0.231042654,31.169619 -0.231042654,19.9905213 C-0.231042654,8.81142363 8.831865,-0.25 20.0094787,-0.25 Z M6.81497365,31.0636638 L31.0822207,6.79175085 C27.9962899,4.1975289 24.1141586,2.74763033 20.0094787,2.74763033 C10.4897067,2.74763033 2.77132701,10.4688998 2.77132686,19.9908032 C2.76675668,24.044545 4.20201153,27.9689372 6.81497365,31.0636638 Z M33.2039668,8.91261974 L8.93630509,33.1802815 C12.0309749,35.7933528 15.9510647,37.228673 20.0094787,37.228673 C29.5318227,37.228673 37.2523697,29.5095708 37.2523697,19.985782 C37.2523697,15.9303208 35.81597,12.006205 33.2039668,8.91261974 Z" id="形状"></path>
        </g>
    </g>
</svg>