<?xml version="1.0" encoding="UTF-8"?>
<svg width="40px" height="40px" viewBox="0 0 40 40" version="1.1" xmlns="http://www.w3.org/2000/svg" xmlns:xlink="http://www.w3.org/1999/xlink">
    <!-- Generator: Sketch 52.2 (67145) - http://www.bohemiancoding.com/sketch -->
    <title>6 copy 4</title>
    <desc>Created with Sketch.</desc>
    <g id="6-copy-4" stroke="none" stroke-width="1" fill="none" fill-rule="evenodd">
        <g id="jine" transform="translate(12.000000, 8.000000)" fill="#666666">
            <path d="M8.00390625,24.8476562 C7.15625,24.8476562 6.46484375,24.1601562 6.46484375,23.3085938 L6.46484375,7.921875 C6.46484375,7.07421875 7.15234375,6.3828125 8.00390625,6.3828125 C8.85546875,6.3828125 9.54296875,7.0703125 9.54296875,7.921875 L9.54296875,23.3046875 C9.5390625,24.15625 8.8515625,24.8476562 8.00390625,24.8476562 Z" id="路径"></path>
            <path d="M14.1523438,12.5390625 L1.84765625,12.5390625 C1,12.5390625 0.30859375,11.8515625 0.30859375,11 C0.30859375,10.1484375 0.99609375,9.4609375 1.84765625,9.4609375 L14.15625,9.4609375 C15.0039063,9.4609375 15.6953125,10.1484375 15.6953125,11 C15.6953125,11.8515625 15.0039062,12.5390625 14.1523438,12.5390625 Z M8,9.4609375 C7.60546875,9.4609375 7.2109375,9.30859375 6.9140625,9.01171875 C6.3125,8.41015625 6.3125,7.4375 6.9140625,6.8359375 L13.0664062,0.68359375 C13.6679688,0.08203125 14.640625,0.08203125 15.2421875,0.68359375 C15.84375,1.28515625 15.84375,2.2578125 15.2421875,2.859375 L9.08984375,9.01171875 C8.7890625,9.3125 8.39453125,9.4609375 8,9.4609375 Z" id="形状" fill-rule="nonzero"></path>
            <path d="M8.01171875,9.45703125 C7.6171875,9.45703125 7.22265625,9.3046875 6.921875,9.0078125 L0.76953125,2.8515625 C0.16796875,2.25 0.16796875,1.27734375 0.76953125,0.67578125 C1.37109375,0.07421875 2.34375,0.07421875 2.9453125,0.67578125 L9.09765625,6.828125 C9.69921875,7.4296875 9.69921875,8.40234375 9.09765625,9.00390625 C8.80078125,9.3046875 8.40625,9.45703125 8.01171875,9.45703125 Z M14.1523438,18.6914062 L1.84765625,18.6914062 C1,18.6914062 0.30859375,18.0039062 0.30859375,17.1523438 C0.30859375,16.3007813 0.99609375,15.6132813 1.84765625,15.6132813 L14.15625,15.6132813 C15.0039063,15.6132813 15.6953125,16.3007813 15.6953125,17.1523438 C15.6953125,18.0039062 15.0039062,18.6914062 14.1523438,18.6914062 Z" id="形状" fill-rule="nonzero"></path>
        </g>
        <g id="bula-copy" fill="#E65151" fill-rule="nonzero" stroke="#FFFFFF" stroke-width="0.5">
            <path d="M20.0094787,-0.25 C31.1902039,-0.25 40.25,8.80979611 40.25,19.9905213 C40.25,31.1712465 31.1902039,40.2310427 20.0094787,40.2310427 C8.831865,40.2310427 -0.231042654,31.169619 -0.231042654,19.9905213 C-0.231042654,8.81142363 8.831865,-0.25 20.0094787,-0.25 Z M6.81497365,31.0636638 L31.0822207,6.79175085 C27.9962899,4.1975289 24.1141586,2.74763033 20.0094787,2.74763033 C10.4897067,2.74763033 2.77132701,10.4688998 2.77132686,19.9908032 C2.76675668,24.044545 4.20201153,27.9689372 6.81497365,31.0636638 Z M33.2039668,8.91261974 L8.93630509,33.1802815 C12.0309749,35.7933528 15.9510647,37.228673 20.0094787,37.228673 C29.5318227,37.228673 37.2523697,29.5095708 37.2523697,19.985782 C37.2523697,15.9303208 35.81597,12.006205 33.2039668,8.91261974 Z" id="形状"></path>
        </g>
    </g>
</svg>