<?xml version="1.0" encoding="UTF-8"?>
<svg width="40px" height="40px" viewBox="0 0 40 40" version="1.1" xmlns="http://www.w3.org/2000/svg" xmlns:xlink="http://www.w3.org/1999/xlink">
    <!-- Generator: Sketch 52.2 (67145) - http://www.bohemiancoding.com/sketch -->
    <title>6 copy</title>
    <desc>Created with Sketch.</desc>
    <g id="6-copy" stroke="none" stroke-width="1" fill="none" fill-rule="evenodd">
        <g id="yd-icon-danger" fill="#666666" fill-rule="nonzero">
            <path d="M13.1250462,23.6641145 C12.9149634,25.6564871 13.842978,27.4779372 15.1902094,27.8212053 C16.4845238,28.1511036 17.5180604,27.5124663 18.0608129,26.0333854 C17.2159876,25.7371173 16.3380064,25.3159904 15.5357619,24.9335496 C14.7299597,24.5492861 13.9959369,24.2018611 13.1250462,23.6641145 Z M26.8325851,23.6641145 C27.0426679,25.6564871 26.1146534,27.4779372 24.767422,27.8212053 C23.4731076,28.1511036 22.4395585,27.5124663 21.8968185,26.0333854 C22.7416438,25.7371173 23.619625,25.3159904 24.4218695,24.9335496 C25.2277342,24.5492861 25.961757,24.2018611 26.8325851,23.6641145 Z M39.9438179,19.8851579 C39.8417039,8.86750047 30.9314285,0.0161715924 19.9788469,0.0369064968 C9.02626539,0.0161715924 0.115989979,8.86750047 0.0138758811,19.8851579 C-0.0895738854,30.8807447 8.86942416,39.916478 19.9235206,39.9666862 C19.9420085,39.9667986 19.9603465,39.9665239 19.9788469,39.9665738 C19.9973348,39.9665239 20.0156729,39.9667861 20.0341607,39.9666862 C31.0882696,39.916478 40.0472677,30.8807447 39.9438179,19.8851579 Z M30.1874938,34.4793539 C30.1888795,34.7991158 29.7930564,35.2350229 29.4691377,35.4225108 C26.31068,37.2504648 23.1469043,38.1619139 19.9789093,38.1631872 C16.8109144,38.1619639 13.6470763,37.2504648 10.4886311,35.4225108 C10.1647123,35.234973 9.76888926,34.7991282 9.7702749,34.4793539 C9.78205924,30.7217563 9.5502803,26.9281941 10.0038639,23.2171845 C10.5997456,18.3214272 15.1765277,14.7382724 19.9788594,14.818166 C24.7811912,14.7382224 29.3579732,18.3214397 29.9538549,23.2171845 C30.4074885,26.9282066 30.1757095,30.7217688 30.1874938,34.4793539 Z M32.0743319,33.2213911 C32.0743319,30.5166918 32.076891,27.8736979 32.0743319,25.230292 C32.0701749,22.709398 31.3458518,20.4125059 30.0034139,18.274964 C29.7384916,17.8519647 29.6414957,17.1868501 29.7423739,16.6903486 C30.198629,14.452715 29.3447408,12.6695889 28.1803659,10.9846195 C27.6624428,12.0089933 27.2367346,12.9279075 26.7395465,13.8064628 C26.384282,14.4305445 25.927927,14.5698591 25.1803098,14.1962564 C23.5384081,13.3731772 21.7831448,12.9279574 19.9788594,13.0020338 C18.1746238,12.927895 16.4193106,13.3731772 14.777409,14.1962564 C14.0298417,14.5697966 13.5734243,14.4305445 13.2181722,13.8064628 C12.7209841,12.9278949 12.2952634,12.0089933 11.7773029,10.9846195 C10.6129155,12.6695265 9.75913966,14.452715 10.2152949,16.6903486 C10.3161856,17.1868377 10.2191897,17.8519522 9.9542549,18.274964 C8.61181707,20.4124559 7.88749384,22.709398 7.88333686,25.230292 C7.88082769,27.8737603 7.88333686,30.5166918 7.88333686,33.2213911 C4.39514314,30.8415718 0.602267516,23.9244555 2.21497053,16.302415 C3.84378972,8.59100607 10.378665,2.70957342 18.1271745,1.94884866 C18.7477359,1.88799219 19.3655259,1.85910565 19.978797,1.86101558 C20.5920556,1.85909316 21.209908,1.8879797 21.830407,1.94884866 C29.5789665,2.70957342 36.1138542,8.59095614 37.7426358,16.3024275 C39.3553888,23.9244679 35.5625756,30.8415718 32.0743319,33.2213911 Z" id="形状"></path>
        </g>
        <g id="bula-copy" fill="#E65151" fill-rule="nonzero" stroke="#FFFFFF" stroke-width="0.5">
            <path d="M20.0094787,-0.25 C31.1902039,-0.25 40.25,8.80979611 40.25,19.9905213 C40.25,31.1712465 31.1902039,40.2310427 20.0094787,40.2310427 C8.831865,40.2310427 -0.231042654,31.169619 -0.231042654,19.9905213 C-0.231042654,8.81142363 8.831865,-0.25 20.0094787,-0.25 Z M6.81497365,31.0636638 L31.0822207,6.79175085 C27.9962899,4.1975289 24.1141586,2.74763033 20.0094787,2.74763033 C10.4897067,2.74763033 2.77132701,10.4688998 2.77132686,19.9908032 C2.76675668,24.044545 4.20201153,27.9689372 6.81497365,31.0636638 Z M33.2039668,8.91261974 L8.93630509,33.1802815 C12.0309749,35.7933528 15.9510647,37.228673 20.0094787,37.228673 C29.5318227,37.228673 37.2523697,29.5095708 37.2523697,19.985782 C37.2523697,15.9303208 35.81597,12.006205 33.2039668,8.91261974 Z" id="形状"></path>
        </g>
    </g>
</svg>