<?xml version="1.0" encoding="UTF-8"?>
<svg width="40px" height="40px" viewBox="0 0 40 40" version="1.1" xmlns="http://www.w3.org/2000/svg" xmlns:xlink="http://www.w3.org/1999/xlink">
    <!-- Generator: Sketch 52.2 (67145) - http://www.bohemiancoding.com/sketch -->
    <title>6 copy 2</title>
    <desc>Created with Sketch.</desc>
    <g id="6-copy-2" stroke="none" stroke-width="1" fill="none" fill-rule="evenodd">
        <g id="qudao" transform="translate(8.000000, 10.000000)" fill="#666666">
            <path d="M9.88265103,17.4663291 C9.88265103,18.7079831 10.9006452,19.7149705 12.155871,19.7179409 C13.380836,19.673922 14.3509055,18.6788488 14.3509055,17.4663291 C14.3509055,16.2538094 13.380836,15.2587362 12.155871,15.2147173 C11.9681877,15.2147173 11.7895132,15.2369958 11.6123402,15.2800675 C10.0147801,12.4462447 7.20853959,7.48259916 7.14247507,7.38457384 C7.04047777,7.21202727 6.87295505,7.08699841 6.67722568,7.03733972 C6.48149632,6.98768103 6.27381893,7.01751751 6.10045748,7.12020253 C5.40743415,7.52640082 4.57962367,7.64350063 3.79928521,7.44572008 C3.01894675,7.24793953 2.3500602,6.75149465 1.93989443,6.06568776 C1.52816851,5.37768596 1.40833929,4.5564937 1.60656891,3.78140084 C1.9081742,2.60175219 2.8995716,1.71871328 4.11710139,1.54526642 C5.33463118,1.37181955 6.53763784,1.94224803 7.1634956,2.98977215 C7.37520235,3.35365401 7.84065689,3.46356118 8.20701466,3.25414346 C8.38098416,3.15243465 8.50682196,2.98635679 8.55669565,2.79264245 C8.60656933,2.59892811 8.57636898,2.3935407 8.47277419,2.22190717 C7.85781665,1.19458267 6.85477753,0.451627679 5.685119,0.157080091 C4.51546046,-0.137467497 3.27538353,0.0406179998 2.23868622,0.652016878 C1.19420805,1.25525433 0.438855898,2.24864656 0.142639296,3.40860759 C-0.157653959,4.56708861 0.0225219941,5.79686076 0.6411261,6.82464135 C1.45774796,8.20299301 2.95389144,9.04763768 4.56896188,9.04209283 C5.07946041,9.04209283 5.57794721,8.95446414 6.07643402,8.78960338 L10.3375953,16.1266498 C10.0407126,16.5107771 9.88074212,16.9813215 9.88265103,17.4648439" id="路径"></path>
            <path d="M15.0296774,13.9626667 L19.2217713,6.76968776 C20.0629563,6.86028923 20.8855886,6.48215751 21.3580028,5.78774617 C21.830417,5.09333483 21.8747449,4.19710376 21.4731147,3.46039162 C21.0714844,2.72367948 20.2900968,2.26791861 19.4439883,2.27686076 C18.525232,2.28006348 17.6983756,2.82897202 17.3472206,3.66879986 C16.9960656,4.5086277 17.1893745,5.47492104 17.8374194,6.11915612 C16.3240114,8.6756499 14.8150355,11.2347085 13.3104985,13.7963207 C13.1093828,14.160653 13.2435673,14.6172568 13.6107918,14.8181603 C14.3195564,15.2003286 14.8453848,15.845853 15.0721646,16.6121902 C15.2989443,17.3785273 15.208021,18.2026397 14.8194721,18.9025485 C14.4350968,19.6035781 13.7834604,20.1248945 13.0117067,20.3536203 C12.2373466,20.5831479 11.4022806,20.4959432 10.6934428,20.1115274 C9.21892785,19.3141396 8.67329238,17.4878006 9.47275073,16.025654 C9.67386645,15.6613217 9.53968195,15.2047179 9.17245748,15.0038143 C8.80484475,14.8068748 8.34547254,14.9393545 8.14245161,15.3008608 C7.55862885,16.3518312 7.42660453,17.5908955 7.77609384,18.739173 C8.11542522,19.8857722 8.90219355,20.8541435 9.96072727,21.4289283 C10.6288798,21.7883544 11.3751085,21.9784641 12.1348504,21.9784641 C12.5687742,21.9784641 12.999695,21.9131139 13.4336188,21.7913249 C15.0581067,21.3182805 16.2843303,19.9944789 16.6190394,18.3524212 C16.9537485,16.7103634 16.3419257,15.0199613 15.0296774,13.9611814" id="路径"></path>
            <path d="M22.5385103,1.21046414 C21.6514502,0.397440583 20.4736572,-0.0327759332 19.2653138,0.0148523207 C18.0544306,0.0574135207 16.9116977,0.5797849 16.094217,1.46443882 C15.4703984,2.13253379 15.0643962,2.97095156 14.9290792,3.87051477 L6.74308504,3.87051477 C6.42604241,2.8195651 5.3900395,2.14710884 4.28919801,2.27772801 C3.18835651,2.40834718 2.34251671,3.30409147 2.28573324,4.39939708 C2.22894976,5.49470268 2.97772058,6.47133771 4.05927942,6.71266476 C5.14083826,6.95399181 6.24094726,6.38989533 6.6650088,5.37654008 C9.8706393,5.38545148 15.6062405,5.41812658 15.6843167,5.41812658 C16.102559,5.39964151 16.4282616,5.0523211 16.4155308,4.63837975 C16.3824985,3.84229536 16.6707801,3.06403376 17.2143109,2.47588186 C17.7578416,1.88772996 18.5175836,1.54018565 19.3223695,1.50899578 C20.1271554,1.47632068 20.9139238,1.76148523 21.5070029,2.29913924 C22.1015836,2.83827848 22.4529267,3.58980591 22.482956,4.3858903 C22.5489979,6.04648722 21.2441651,7.44682051 19.565607,7.51675949 C19.1479665,7.53524186 18.8224991,7.88165034 18.834393,8.2950211 C18.8480966,8.69764334 19.1808812,9.0176493 19.588129,9.01981435 L19.6211613,9.01981435 C22.1346207,8.91369837 24.0884654,6.81765072 23.9919296,4.33093671 C23.9533004,3.1397439 23.4290412,2.01470185 22.5385103,1.21194937" id="路径"></path>
        </g>
        <g id="bula-copy-2" fill="#E65151" fill-rule="nonzero" stroke="#FFFFFF" stroke-width="0.5">
            <path d="M20.0094787,-0.25 C31.1902039,-0.25 40.25,8.80979611 40.25,19.9905213 C40.25,31.1712465 31.1902039,40.2310427 20.0094787,40.2310427 C8.831865,40.2310427 -0.231042654,31.169619 -0.231042654,19.9905213 C-0.231042654,8.81142363 8.831865,-0.25 20.0094787,-0.25 Z M6.81497365,31.0636638 L31.0822207,6.79175085 C27.9962899,4.1975289 24.1141586,2.74763033 20.0094787,2.74763033 C10.4897067,2.74763033 2.77132701,10.4688998 2.77132686,19.9908032 C2.76675668,24.044545 4.20201153,27.9689372 6.81497365,31.0636638 Z M33.2039668,8.91261974 L8.93630509,33.1802815 C12.0309749,35.7933528 15.9510647,37.228673 20.0094787,37.228673 C29.5318227,37.228673 37.2523697,29.5095708 37.2523697,19.985782 C37.2523697,15.9303208 35.81597,12.006205 33.2039668,8.91261974 Z" id="形状"></path>
        </g>
    </g>
</svg>