<?xml version="1.0" encoding="UTF-8"?>
<svg width="40px" height="40px" viewBox="0 0 40 40" version="1.1" xmlns="http://www.w3.org/2000/svg" xmlns:xlink="http://www.w3.org/1999/xlink">
    <!-- Generator: Sketch 52.2 (67145) - http://www.bohemiancoding.com/sketch -->
    <title>6 copy 6</title>
    <desc>Created with Sketch.</desc>
    <g id="6-copy-6" stroke="none" stroke-width="1" fill="none" fill-rule="evenodd">
        <g id="mima" transform="translate(10.000000, 8.000000)" fill="#666666" fill-rule="nonzero">
            <path d="M13.7244444,5.84037374 C13.7244444,3.6769798 12.0122367,1.93548485 9.91953824,1.93548485 C7.82683983,1.93548485 6.11463203,3.6769798 6.11463203,5.84037374 L6.11463203,8.44425253 L13.7244444,8.44425253 L13.7244444,5.84037374 Z M17.9098413,10.3567374 L1.93108225,10.3567374 L1.93108225,21.075202 L17.9098413,21.075202 L17.9098413,10.3567374 Z M4.21402597,5.84037374 C4.21402597,2.6250202 6.76294372,0.0211414141 9.92138528,0.0211414141 C13.0798268,0.0211414141 15.6287446,2.6250202 15.6287446,5.84037374 L15.6287446,8.44425253 L18.2921789,8.44425253 C19.1288889,8.44425253 19.8141414,9.13378788 19.8141414,9.97572727 L19.8141414,21.4599293 C19.8111023,22.3044695 19.1314735,22.9883459 18.2921789,22.991404 L1.55059163,22.991404 C0.710877567,22.9893606 0.030659905,22.3048916 0.0286291486,21.4599293 L0.0286291486,9.97386869 C0.0286291486,9.13192929 0.712034632,8.44239394 1.55059163,8.44239394 L4.21402597,8.44239394 L4.21402597,5.84037374 Z" id="形状"></path>
            <path d="M9.92138528,18.6534646 C8.23091486,18.6514164 6.86102539,17.2729652 6.8589899,15.5719293 C6.86102539,13.8708934 8.23091486,12.4924421 9.92138528,12.4903939 C11.6118557,12.4924421 12.9817452,13.8708934 12.9837807,15.5719293 C12.9817452,17.2729652 11.6118557,18.6514164 9.92138528,18.6534646 Z M9.92138528,14.2560505 C9.19915941,14.2560505 8.61367965,14.8451895 8.61367965,15.5719293 C8.61367965,16.2986691 9.19915941,16.8878081 9.92138528,16.8878081 C10.6436112,16.8878081 11.2290909,16.2986691 11.2290909,15.5719293 C11.2290909,14.8451895 10.6436112,14.2560505 9.92138528,14.2560505 Z" id="形状"></path>
        </g>
        <g id="bula-copy-3" fill="#E65151" fill-rule="nonzero" stroke="#FFFFFF" stroke-width="0.5">
            <path d="M20.0094787,-0.25 C31.1902039,-0.25 40.25,8.80979611 40.25,19.9905213 C40.25,31.1712465 31.1902039,40.2310427 20.0094787,40.2310427 C8.831865,40.2310427 -0.231042654,31.169619 -0.231042654,19.9905213 C-0.231042654,8.81142363 8.831865,-0.25 20.0094787,-0.25 Z M6.81497365,31.0636638 L31.0822207,6.79175085 C27.9962899,4.1975289 24.1141586,2.74763033 20.0094787,2.74763033 C10.4897067,2.74763033 2.77132701,10.4688998 2.77132686,19.9908032 C2.76675668,24.044545 4.20201153,27.9689372 6.81497365,31.0636638 Z M33.2039668,8.91261974 L8.93630509,33.1802815 C12.0309749,35.7933528 15.9510647,37.228673 20.0094787,37.228673 C29.5318227,37.228673 37.2523697,29.5095708 37.2523697,19.985782 C37.2523697,15.9303208 35.81597,12.006205 33.2039668,8.91261974 Z" id="形状"></path>
        </g>
    </g>
</svg>