<?xml version="1.0" encoding="utf-8"?>
<!-- Generator: Adobe Illustrator 21.0.0, SVG Export Plug-In . SVG Version: 6.00 Build 0)  -->
<svg version="1.1" id="图层_1" xmlns="http://www.w3.org/2000/svg" xmlns:xlink="http://www.w3.org/1999/xlink" x="0px" y="0px"
	 viewBox="55 40 330 110" style="enable-background:new 55 40 330 110;" xml:space="preserve">
<style type="text/css">
	.st0{fill:#FFFFFF;}
</style>
<g id="XMLID_580_">
	<path id="XMLID_581_" class="st0" d="M134.7,120.4c-1.2,0-2.4,0.2-3.5,0.6l-8.8-17.3c3.7-2.6,6.1-6.9,6.1-11.8
		c0-4.2-1.8-8.1-4.7-10.7l12.7-18.3c1,0.5,2.2,0.8,3.4,0.8c4.1,0,7.5-3.4,7.5-7.5c0-4.1-3.4-7.5-7.5-7.5c-4.1,0-7.5,3.4-7.5,7.5
		c0,2.1,0.9,4.1,2.4,5.4l-12.7,18.3c-2.3-1.5-5.1-2.5-8.1-2.5c-6.1,0-11.4,3.8-13.5,9.2L76.5,80c0-0.2,0-0.4,0-0.5
		c0-3.2-2.6-5.7-5.7-5.7c-3.2,0-5.7,2.6-5.7,5.7c0,3.2,2.6,5.7,5.7,5.7c2.2,0,4.2-1.3,5.1-3.2l24,6.6c-0.2,1-0.4,2.1-0.4,3.2
		c0,8,6.5,14.5,14.5,14.5c2.4,0,4.6-0.6,6.6-1.6l8.7,17.1c-3.2,1.9-5.4,5.4-5.4,9.3c0,6,4.8,10.8,10.8,10.8c6,0,10.8-4.9,10.8-10.8
		C145.5,125.2,140.7,120.4,134.7,120.4z"/>
	<circle id="XMLID_582_" class="st0" cx="87.4" cy="112.5" r="5.7"/>
</g>
<path id="XMLID_623_" class="st0" d="M189.7,81.9c0,6.9-4.4,11.5-10.8,11.5c-6.5,0-10.8-4.6-10.8-11.5V63.4h4.1v17.3
	c0,5.9,2.2,8.8,6.7,8.8c4.5,0,6.7-2.9,6.7-8.8V63.4h4.1V81.9z M200.2,71.7l21.2,22.2l0.5,0.5v-31h-4.1v20.9l-21.2-22.2l-0.5-0.5
	v31.2h4.1V71.7z M232.8,63.4h-4.1v29.4h4.1V63.4z M249.7,84.3l-8.4-20.7l-0.1-0.2h-4.5l13,31.4l12.8-31l0.2-0.4h-4.5L249.7,84.3z
	 M282.7,89h-11.9V78.6h11.6v-3.8h-11.6v-7.5h11.9v-3.8h-16v29.4h16V89z M302.6,92.7l-8.4-12.1h-1.1v12.2h-4.1V63.4h4.6
	c2.4,0,5.3,0,7.8,1.4c2.4,1.4,3.9,4.2,3.9,7.1c0,4.3-2.7,7.6-6.7,8.3l9.2,12.6h-5L302.6,92.7z M293.8,67.2h-0.7v9.9h0.9
	c3.4,0,7.4-0.6,7.4-5C301.3,68.7,298.9,67.2,293.8,67.2z M321.8,75.2l-2.1-0.8c-2.6-1-3.8-2.3-3.8-3.9c0-2.4,2.4-3.8,4.6-3.8
	c2,0,3.3,0.8,4.4,2.6l0.1,0.2l3.3-2l-0.1-0.2c-1.6-2.9-4.3-4.5-7.7-4.5c-4.3,0-8.8,2.7-8.8,7.7c0,4.2,3.1,6.1,6.4,7.6l2,0.8
	c2.3,1,4.8,2.2,4.8,5.2c0,3-2.2,5.4-5.1,5.4c-1.5,0-2.9-0.6-3.9-1.6c-0.9-1-1.5-2.2-1.4-3.6l0-0.3l-4.2,0.9l0,0.2
	c0.6,4.8,4.5,8.3,9.2,8.3c5.4,0,9.5-4,9.5-9.3C329.1,78.8,325.4,76.6,321.8,75.2z M345.8,61.8l14.2,31h-4.5l-3.3-7.2h-12.9l-3.3,7.2
	h-4.5l0.2-0.4L345.8,61.8z M350.5,81.7L345.8,71l-4.7,10.7H350.5z M376.9,89h-8.8V63.4H364v29.4h12.9V89z M168,130.2h15.9v-3.8
	h-11.8v-10.3h11.4v-3.8h-11.4v-7.5h11.8v-3.8H168V130.2z M209.3,101.1h-4.7l-6,10.1l-5.6-10l-0.1-0.1h-4.7l8,13.9l-9.1,15.2h4.6
	l6.8-11.4l6.5,11.3l0.1,0.1h4.6l-8.8-15.2L209.3,101.1z M227.9,100.4c-8.7,0-15.5,6.7-15.5,15.3c0,8.3,6.8,15,15.2,15
	c2.6,0,5.4-0.8,7.6-2l0.1-0.1v-5l-0.4,0.4c-2.1,1.9-4.7,2.9-7.4,2.9c-6,0-10.9-5.1-10.9-11.3c0-6.3,4.9-11.4,11-11.4
	c2.7,0,5.4,1,7.4,2.7l0.4,0.4v-4.9l-0.1-0.1C233.1,101.1,230.6,100.4,227.9,100.4z M258.2,112.6h-13.1v-11.5H241v29.1h4.1v-13.7
	h13.1v13.7h4.1v-29.1h-4.1V112.6z M280,99.5l14.1,30.7h-4.4l-3.3-7.2h-12.8l-3.3,7.2H266l0.2-0.4L280,99.5z M284.7,119.2l-4.7-10.6
	l-4.7,10.6H284.7z M319.1,121.7l-21-22l-0.5-0.5v30.9h4.1v-20.9l21,22l0.5,0.5v-30.7h-4.1V121.7z M344.7,119h7.4
	c-0.3,4.5-5.1,7.9-9.1,7.9c-5.8,0-10.8-5.3-10.8-11.4c0-6.3,4.9-11.3,11.1-11.3c3.4,0,6.7,1.7,8.8,4.5l0.2,0.2l2.9-2.8l-0.2-0.2
	c-2.8-3.5-7.2-5.6-11.8-5.6c-8.3,0-15.1,6.8-15.1,15.2c0,8.2,6.7,15.1,14.7,15.1c8,0,13.8-5.9,13.8-14.1v-1.4h-11.9V119z
	 M377.7,104.9v-3.8h-15.9v29.1h15.9v-3.8h-11.8v-10.3h11.4v-3.8h-11.4v-7.5H377.7z"/>
</svg>
