<?xml version="1.0" encoding="utf-8"?>
<!-- Generator: Adobe Illustrator 21.0.0, SVG Export Plug-In . SVG Version: 6.00 Build 0)  -->
<svg version="1.1" id="图层_1" xmlns="http://www.w3.org/2000/svg" xmlns:xlink="http://www.w3.org/1999/xlink" x="0px" y="0px"
	 viewBox="0 0 1920 800" style="enable-background:new 0 0 1920 800;" xml:space="preserve">
<style type="text/css">
	.st0{fill:url(#SVGID_1_);}
	.st1{fill:url(#SVGID_2_);}
	.st2{fill:url(#SVGID_3_);}
	.st3{fill:url(#SVGID_4_);}
	.st4{fill:url(#SVGID_5_);}
	.st5{fill:#FFFFFF;}
	.st6{fill:url(#SVGID_6_);}
	.st7{fill:url(#SVGID_7_);}
	.st8{fill:url(#SVGID_8_);}
	.st9{fill:url(#SVGID_9_);}
	.st10{fill:#26FDE4;}
	.st11{opacity:0.51;fill:url(#SVGID_10_);enable-background:new    ;}
	.st12{opacity:0.51;fill:url(#SVGID_11_);enable-background:new    ;}
	.st13{opacity:0.51;fill:url(#SVGID_12_);enable-background:new    ;}
	.st14{opacity:0.51;fill:url(#SVGID_13_);enable-background:new    ;}
	.st15{opacity:0.5;}
	.st16{fill:url(#SVGID_14_);}
	.st17{fill:url(#SVGID_15_);}
	.st18{fill:url(#SVGID_16_);}
	.st19{fill:url(#SVGID_17_);}
	.st20{fill:url(#SVGID_18_);}
	.st21{fill:url(#SVGID_19_);}
	.st22{fill:url(#SVGID_20_);}
	.st23{fill:url(#SVGID_21_);}
	.st24{fill:url(#SVGID_22_);}
	.st25{fill:url(#SVGID_23_);}
	.st26{fill:url(#SVGID_24_);}
	.st27{fill:url(#SVGID_25_);}
	.st28{fill:url(#SVGID_26_);}
	.st29{fill:url(#SVGID_27_);}
	.st30{fill:url(#SVGID_28_);}
	.st31{fill:url(#SVGID_29_);}
	.st32{fill:url(#SVGID_30_);}
	.st33{fill:url(#SVGID_31_);}
	.st34{fill:url(#SVGID_32_);}
	.st35{fill:url(#SVGID_33_);}
	.st36{fill:#4D54C2;}
	.st37{fill:#787BFF;}
	.st38{fill:#46FFEB;}
	.st39{fill:url(#SVGID_34_);}
	.st40{opacity:0.4;fill:#FFFFFF;stroke:#FFFFFF;stroke-miterlimit:10;enable-background:new    ;}
	.st41{fill:url(#SVGID_35_);}
	.st42{fill:url(#SVGID_36_);}
	.st43{fill:#F4C25A;}
	.st44{fill:url(#SVGID_37_);}
	.st45{fill:url(#SVGID_38_);}
	.st46{fill:#F0A916;}
	.st47{fill:url(#SVGID_39_);}
	.st48{fill:url(#SVGID_40_);}
	.st49{clip-path:url(#SVGID_42_);}
	.st50{fill:url(#SVGID_43_);}
	.st51{fill:url(#SVGID_44_);}
	.st52{fill:url(#SVGID_45_);}
	.st53{fill:url(#SVGID_46_);}
	.st54{fill:url(#SVGID_47_);}
	.st55{fill:url(#SVGID_48_);}
	.st56{fill:url(#SVGID_49_);}
	.st57{fill:#83FBEE;}
	.st58{fill:url(#SVGID_50_);}
	.st59{fill:url(#SVGID_51_);}
	.st60{fill:url(#SVGID_52_);}
	.st61{opacity:0.51;fill:url(#SVGID_53_);enable-background:new    ;}
	.st62{opacity:0.79;fill:url(#SVGID_54_);enable-background:new    ;}
	.st63{fill:url(#SVGID_55_);}
	.st64{fill:url(#SVGID_56_);}
	.st65{fill:url(#SVGID_57_);}
	.st66{opacity:0.51;fill:url(#SVGID_58_);enable-background:new    ;}
	.st67{opacity:0.51;fill:url(#SVGID_59_);enable-background:new    ;}
	.st68{fill:url(#SVGID_60_);}
	.st69{fill:#FFBFE9;}
	.st70{opacity:0.51;fill:url(#SVGID_61_);enable-background:new    ;}
	.st71{opacity:0.79;fill:url(#SVGID_62_);enable-background:new    ;}
	.st72{fill:url(#SVGID_63_);}
	.st73{fill:url(#SVGID_64_);}
	.st74{fill:url(#SVGID_65_);}
	.st75{fill:url(#SVGID_66_);}
	.st76{fill:url(#SVGID_67_);}
	.st77{fill:url(#SVGID_68_);}
	.st78{fill:#F4DDC7;}
	.st79{fill:#F7E8DC;}
	.st80{fill:#956A6A;}
	.st81{fill:url(#SVGID_69_);}
	.st82{fill:#EFC8A8;}
	.st83{fill:#D98438;}
	.st84{fill:#EF8BA3;}
	.st85{fill:#875151;}
	.st86{fill:#253A9A;}
	.st87{fill:url(#SVGID_70_);}
	.st88{fill:#152D84;}
	.st89{fill:url(#SVGID_71_);}
	.st90{fill:url(#SVGID_72_);}
	.st91{fill:url(#SVGID_73_);}
	.st92{fill:url(#SVGID_74_);}
	.st93{fill:url(#SVGID_75_);}
	.st94{fill:url(#SVGID_76_);}
	.st95{fill:url(#SVGID_77_);}
	.st96{opacity:0.51;fill:url(#SVGID_78_);enable-background:new    ;}
	.st97{opacity:0.51;fill:url(#SVGID_79_);enable-background:new    ;}
	.st98{opacity:0.51;fill:url(#SVGID_80_);enable-background:new    ;}
	.st99{opacity:0.51;fill:url(#SVGID_81_);enable-background:new    ;}
	.st100{fill:url(#SVGID_82_);}
	.st101{fill:url(#SVGID_83_);}
	.st102{fill:url(#SVGID_84_);}
	.st103{fill:url(#SVGID_85_);}
	.st104{fill:url(#SVGID_86_);}
	.st105{opacity:0.51;fill:url(#SVGID_87_);enable-background:new    ;}
	.st106{opacity:0.79;fill:url(#SVGID_88_);enable-background:new    ;}
	.st107{fill:url(#SVGID_89_);}
	.st108{fill:url(#SVGID_90_);}
	.st109{fill:url(#SVGID_91_);}
	.st110{opacity:0.51;fill:url(#SVGID_92_);enable-background:new    ;}
	.st111{opacity:0.51;fill:url(#SVGID_93_);enable-background:new    ;}
	.st112{fill:url(#SVGID_94_);}
	.st113{opacity:0.51;fill:url(#SVGID_95_);enable-background:new    ;}
	.st114{opacity:0.79;fill:url(#SVGID_96_);enable-background:new    ;}
	.st115{fill:url(#SVGID_97_);}
	.st116{fill:url(#SVGID_98_);}
	.st117{fill:url(#SVGID_99_);}
	.st118{fill:url(#SVGID_100_);}
	.st119{fill:url(#SVGID_101_);}
	.st120{fill:url(#SVGID_102_);}
	.st121{fill:url(#SVGID_103_);}
</style>
<g>
	<g>
		
			<linearGradient id="SVGID_1_" gradientUnits="userSpaceOnUse" x1="1443.655" y1="8.2621" x2="1439.4108" y2="145.777" gradientTransform="matrix(1 0 0 -1 0 800)">
			<stop  offset="0" style="stop-color:#210C6D"/>
			<stop  offset="0.7828" style="stop-color:#210C6D;stop-opacity:0"/>
		</linearGradient>
		<path class="st0" d="M1434.9,792c-0.5,0-1,0-1.6-0.1c-5.2-0.5-11.3-4.4-11.9-4.8l-97.5-54.2c-0.7-0.3-6.9-3.6-6.9-7.9
			c0-4.3,5.2-7,5.9-7.4l112-60.9c0.5-0.3,11.6-5.9,23,0c10.6,5.6,98.2,53.9,100.6,55.2c1.8,0.8,7.5,3.7,7.5,6.9
			c0,5.2-3.1,6.8-7.7,9.1l-0.8,0.4c-5.1,2.5-109.9,59.8-110.9,60.4C1446.3,788.8,1440.9,792,1434.9,792z M1324.2,720.1
			c-1.2,0.6-4.4,2.7-4.4,5c0,2.1,3.7,4.6,5.4,5.5l97.7,54.3c0.1,0,6,3.9,10.7,4.4c5.7,0.6,11.5-2.9,11.6-2.9
			c4.4-2.4,105.9-57.9,111-60.4l0.8-0.4c4.8-2.4,6.2-3.2,6.2-6.7c0-0.9-2.9-3-5.9-4.4h-0.1c-0.9-0.5-89.9-49.6-100.6-55.2
			c-10.1-5.3-20.3-0.1-20.4,0L1324.2,720.1z"/>
	</g>
	<g>
		
			<linearGradient id="SVGID_2_" gradientUnits="userSpaceOnUse" x1="1512.8207" y1="98.6567" x2="1372.799" y2="96.3487" gradientTransform="matrix(1 0 0 -1 0 800)">
			<stop  offset="0" style="stop-color:#5961E0"/>
			<stop  offset="0.1458" style="stop-color:#5961E0"/>
			<stop  offset="0.3509" style="stop-color:#7077EE"/>
			<stop  offset="0.5017" style="stop-color:#9FA5F1"/>
			<stop  offset="0.5419" style="stop-color:#9FA5F1"/>
			<stop  offset="0.6661" style="stop-color:#737AF0"/>
			<stop  offset="1" style="stop-color:#888FFD"/>
		</linearGradient>
		<path class="st1" d="M1375.8,700.1l63.7-34.6c0,0,6.2-3.2,12.3,0c6.2,3.2,57.2,31.4,57.2,31.4s3.8,1.8,3.8,3.2
			c0,2.6-1.5,3.2-4.4,4.7s-63.1,34.3-63.1,34.3s-3.5,2.1-7,1.8c-2.9-0.3-6.5-2.6-6.5-2.6l-55.5-30.8c0,0-3.5-1.8-3.5-3.8
			S1375.8,700.1,1375.8,700.1z"/>
		
			<linearGradient id="SVGID_3_" gradientUnits="userSpaceOnUse" x1="1512.9692" y1="106.936" x2="1372.6646" y2="104.6233" gradientTransform="matrix(1 0 0 -1 0 800)">
			<stop  offset="0" style="stop-color:#5961E0"/>
			<stop  offset="0.1458" style="stop-color:#5961E0"/>
			<stop  offset="0.3509" style="stop-color:#7077EE"/>
			<stop  offset="0.5017" style="stop-color:#9FA5F1"/>
			<stop  offset="0.5419" style="stop-color:#9FA5F1"/>
			<stop  offset="0.6661" style="stop-color:#737AF0"/>
			<stop  offset="1" style="stop-color:#888FFD"/>
		</linearGradient>
		<polygon class="st2" points="1372.8,686.3 1372.8,703.6 1439.9,740.9 1512.8,701 1512.8,682.8 1448.2,647.5 		"/>
	</g>
	
		<linearGradient id="SVGID_4_" gradientUnits="userSpaceOnUse" x1="1372.8" y1="114.7964" x2="1512.8" y2="114.7964" gradientTransform="matrix(1 0 0 -1 0 800)">
		<stop  offset="0" style="stop-color:#5961E0"/>
		<stop  offset="1" style="stop-color:#888FFD"/>
	</linearGradient>
	<path class="st3" d="M1375.8,682.8l63.7-34.6c0,0,6.2-3.2,12.3,0c6.2,3.2,57.2,31.4,57.2,31.4s3.8,1.8,3.8,3.2
		c0,2.6-1.5,3.2-4.4,4.7s-63.1,34.3-63.1,34.3s-3.5,2.1-7,1.8c-2.9-0.3-6.5-2.6-6.5-2.6l-55.5-30.8c0,0-3.5-1.8-3.5-3.8
		C1372.8,684.2,1375.8,682.8,1375.8,682.8z"/>
	<g>
		
			<linearGradient id="SVGID_5_" gradientUnits="userSpaceOnUse" x1="1317" y1="97.5951" x2="1566" y2="97.5951" gradientTransform="matrix(1 0 0 -1 0 800)">
			<stop  offset="0" style="stop-color:#5961E0"/>
			<stop  offset="1" style="stop-color:#888FFD"/>
		</linearGradient>
		<path class="st4" d="M1434.9,771.4c-0.5,0-1,0-1.6-0.1c-5.2-0.5-11.3-4.4-11.9-4.8l-97.5-54.2c-0.7-0.3-6.9-3.6-6.9-7.9
			c0-4.3,5.2-7,5.9-7.4l112-60.9c0.5-0.3,11.6-5.9,23,0c10.6,5.6,98.2,53.9,100.6,55.2c1.8,0.8,7.5,3.7,7.5,6.9
			c0,5.2-3.1,6.8-7.7,9.1l-0.8,0.4c-5.1,2.5-109.9,59.8-110.9,60.4C1446.3,768.2,1440.9,771.4,1434.9,771.4z M1324.2,699.5
			c-1.2,0.6-4.4,2.7-4.4,5c0,2.1,3.7,4.6,5.4,5.5l97.7,54.3c0.1,0,6,3.9,10.7,4.4c5.7,0.6,11.5-2.9,11.6-2.9
			c4.4-2.4,105.9-57.9,111-60.4l0.8-0.4c4.8-2.4,6.2-3.2,6.2-6.7c0-0.9-2.9-3-5.9-4.4h-0.1c-0.9-0.5-89.9-49.6-100.6-55.2
			c-10.1-5.3-20.3-0.1-20.4,0L1324.2,699.5z"/>
	</g>
	<path class="st5" d="M1463.8,723.2l-8.1,4.5c-0.7,0.4-0.9,0-0.9-0.6l-0.1-1.9c0-0.6,0.2-1.3,0.9-1.7l8.3-4.6c0.6-0.3,0.9,0,0.9,0.5
		v2.1C1464.7,722.5,1464.4,722.8,1463.8,723.2z"/>
	<path class="st5" d="M1499.9,702.3l-8.1,4.5c-0.7,0.4-0.9,0-0.9-0.6l-0.1-1.9c0-0.6,0.2-1.3,0.9-1.7l8.3-4.6c0.6-0.3,0.9,0,0.9,0.5
		v2.1C1500.9,701.6,1500.6,701.9,1499.9,702.3z"/>
	
		<linearGradient id="SVGID_6_" gradientUnits="userSpaceOnUse" x1="1466.5103" y1="79.6758" x2="1478.1901" y2="52.2091" gradientTransform="matrix(1 0 0 -1 0 800)">
		<stop  offset="0" style="stop-color:#FFFFFF"/>
		<stop  offset="0.4939" style="stop-color:#71EEFF;stop-opacity:0.2"/>
		<stop  offset="0.6867" style="stop-color:#494EC2;stop-opacity:0.1169"/>
		<stop  offset="0.9627" style="stop-color:#390FAA;stop-opacity:0.1"/>
	</linearGradient>
	<polygon class="st6" points="1454.6,726 1464.7,720.5 1487.5,736 1476.9,741.3 	"/>
	
		<linearGradient id="SVGID_7_" gradientUnits="userSpaceOnUse" x1="1502.704" y1="100.4407" x2="1514.3838" y2="72.974" gradientTransform="matrix(1 0 0 -1 0 800)">
		<stop  offset="0" style="stop-color:#FFFFFF"/>
		<stop  offset="0.4939" style="stop-color:#71EEFF;stop-opacity:0.2"/>
		<stop  offset="0.6867" style="stop-color:#494EC2;stop-opacity:0.1169"/>
		<stop  offset="0.9627" style="stop-color:#390FAA;stop-opacity:0.1"/>
	</linearGradient>
	<polygon class="st7" points="1490.8,705.2 1500.9,699.8 1523.7,715.3 1513.1,720.5 	"/>
	<path class="st5" d="M1419.7,725l8.1,4.5c0.7,0.4,0.9,0,0.9-0.6l0.1-1.9c0-0.6-0.2-1.3-0.9-1.7l-8.3-4.6c-0.6-0.3-0.9,0-0.9,0.5
		v2.1C1418.8,724.3,1419,724.6,1419.7,725z"/>
	<path class="st5" d="M1383.5,704.1l8.1,4.5c0.7,0.4,0.9,0,0.9-0.6l0.1-1.9c0-0.6-0.2-1.3-0.9-1.7l-8.3-4.6c-0.6-0.3-0.9,0-0.9,0.5
		v2.1C1382.6,703.4,1382.9,703.7,1383.5,704.1z"/>
	
		<linearGradient id="SVGID_8_" gradientUnits="userSpaceOnUse" x1="2531.666" y1="77.8475" x2="2543.3459" y2="50.3808" gradientTransform="matrix(-1 0 0 -1 3948.6438 800)">
		<stop  offset="0" style="stop-color:#FFFFFF"/>
		<stop  offset="0.4939" style="stop-color:#71EEFF;stop-opacity:0.2"/>
		<stop  offset="0.6867" style="stop-color:#494EC2;stop-opacity:0.1169"/>
		<stop  offset="0.9627" style="stop-color:#390FAA;stop-opacity:0.1"/>
	</linearGradient>
	<polygon class="st8" points="1428.9,727.8 1418.8,722.4 1396,737.8 1406.5,743.1 	"/>
	
		<linearGradient id="SVGID_9_" gradientUnits="userSpaceOnUse" x1="2567.8599" y1="98.6124" x2="2579.5396" y2="71.1457" gradientTransform="matrix(-1 0 0 -1 3948.6438 800)">
		<stop  offset="0" style="stop-color:#FFFFFF"/>
		<stop  offset="0.4939" style="stop-color:#71EEFF;stop-opacity:0.2"/>
		<stop  offset="0.6867" style="stop-color:#494EC2;stop-opacity:0.1169"/>
		<stop  offset="0.9627" style="stop-color:#390FAA;stop-opacity:0.1"/>
	</linearGradient>
	<polygon class="st9" points="1392.7,707 1382.6,701.6 1359.8,717.1 1370.3,722.4 	"/>
	<g>
		<polygon class="st10" points="1444.3,669.6 1410.7,687.7 1439.7,704 1474.4,685.4 		"/>
		
			<linearGradient id="SVGID_10_" gradientUnits="userSpaceOnUse" x1="1459.1758" y1="106.8147" x2="1455.265" y2="119.7571" gradientTransform="matrix(1 0 0 -1 0 800)">
			<stop  offset="0" style="stop-color:#26FDE4;stop-opacity:0.5"/>
			<stop  offset="1" style="stop-color:#FFFFFF;stop-opacity:0.9"/>
		</linearGradient>
		<polygon class="st11" points="1439.7,704 1439.7,686.6 1474.4,668.3 1474.4,685.4 		"/>
		
			<linearGradient id="SVGID_11_" gradientUnits="userSpaceOnUse" x1="1429.7017" y1="125.4388" x2="1425.046" y2="134.5638" gradientTransform="matrix(1 0 0 -1 0 800)">
			<stop  offset="0" style="stop-color:#26FDE4;stop-opacity:0.5"/>
			<stop  offset="1" style="stop-color:#26FDE4;stop-opacity:0.9"/>
		</linearGradient>
		<polygon class="st12" points="1410.7,687.6 1410.7,670.2 1444.1,652.5 1444.1,669.6 		"/>
		
			<linearGradient id="SVGID_12_" gradientUnits="userSpaceOnUse" x1="1458.2922" y1="128.0705" x2="1461.6443" y2="138.4989" gradientTransform="matrix(1 0 0 -1 0 800)">
			<stop  offset="0" style="stop-color:#26FDE4;stop-opacity:0.5"/>
			<stop  offset="1" style="stop-color:#26FDE4;stop-opacity:0.9"/>
		</linearGradient>
		<polygon class="st13" points="1444.1,652.5 1444.1,669.6 1474.4,685.4 1474.4,668.3 		"/>
		
			<linearGradient id="SVGID_13_" gradientUnits="userSpaceOnUse" x1="1422.293" y1="107.8999" x2="1429.0457" y2="119.5146" gradientTransform="matrix(1 0 0 -1 0 800)">
			<stop  offset="0" style="stop-color:#26FDE4;stop-opacity:0.5"/>
			<stop  offset="1" style="stop-color:#FFFFFF;stop-opacity:0.9"/>
		</linearGradient>
		<polygon class="st14" points="1410.7,670.2 1410.7,687.7 1439.7,704 1439.7,686.6 		"/>
		<g>
			<path class="st10" d="M1444.2,670.2c-0.2,0-0.3-0.1-0.3-0.3v-17.2c0-0.2,0.1-0.3,0.3-0.3c0.2,0,0.3,0.1,0.3,0.3v17.2
				C1444.5,670,1444.4,670.2,1444.2,670.2z"/>
		</g>
		<g class="st15">
			<path class="st5" d="M1439.7,704c-0.2,0-0.3-0.1-0.3-0.3v-17.2c0-0.2,0.1-0.3,0.3-0.3s0.3,0.1,0.3,0.3v17.2
				C1440,703.8,1439.9,704,1439.7,704z"/>
		</g>
	</g>
</g>
<g>
	
		<linearGradient id="SVGID_14_" gradientUnits="userSpaceOnUse" x1="1705.1649" y1="612.3739" x2="1787.2213" y2="612.3739" gradientTransform="matrix(1.5975 -0.3254 0.3254 -1.1772 -1229.608 1469.6409)">
		<stop  offset="0" style="stop-color:#FFFFFF"/>
		<stop  offset="0.4939" style="stop-color:#71EEFF;stop-opacity:0.2"/>
		<stop  offset="0.6867" style="stop-color:#494EC2;stop-opacity:0.1169"/>
		<stop  offset="0.9627" style="stop-color:#390FAA;stop-opacity:0.1"/>
	</linearGradient>
	<path class="st16" d="M1689.7,221.1c-1,0-1.9-0.5-2.4-1.4c-0.7-1.3-0.2-3,1.1-3.7l139-75.7c1.3-0.7,3-0.2,3.7,1.1s0.2,3-1.1,3.7
		l-139,75.7C1690.6,221,1690.2,221.1,1689.7,221.1z"/>
</g>
<g>
	
		<linearGradient id="SVGID_15_" gradientUnits="userSpaceOnUse" x1="1391.6722" y1="298.9272" x2="1473.7286" y2="298.9272" gradientTransform="matrix(1.5975 -0.3254 0.3254 -1.1772 -1229.608 1469.6409)">
		<stop  offset="0" style="stop-color:#FFFFFF"/>
		<stop  offset="0.4939" style="stop-color:#71EEFF;stop-opacity:0.2"/>
		<stop  offset="0.6867" style="stop-color:#494EC2;stop-opacity:0.1169"/>
		<stop  offset="0.9627" style="stop-color:#390FAA;stop-opacity:0.1"/>
	</linearGradient>
	<path class="st17" d="M1086.9,692.1c-1,0-1.9-0.5-2.4-1.4c-0.7-1.3-0.2-3,1.1-3.7l139-75.7c1.3-0.7,3-0.2,3.7,1.1s0.2,3-1.1,3.7
		l-139,75.7C1087.8,692,1087.4,692.1,1086.9,692.1z"/>
</g>
<g>
	
		<linearGradient id="SVGID_16_" gradientUnits="userSpaceOnUse" x1="1726.5923" y1="212.4807" x2="1808.6487" y2="212.4807" gradientTransform="matrix(1.5975 -0.3254 0.3254 -1.1772 -1229.608 1469.6409)">
		<stop  offset="0" style="stop-color:#FFFFFF"/>
		<stop  offset="0.4939" style="stop-color:#71EEFF;stop-opacity:0.2"/>
		<stop  offset="0.6867" style="stop-color:#494EC2;stop-opacity:0.1169"/>
		<stop  offset="0.9627" style="stop-color:#390FAA;stop-opacity:0.1"/>
	</linearGradient>
	<path class="st18" d="M1593.8,684.9c-1,0-1.9-0.5-2.4-1.4c-0.7-1.3-0.2-3,1.1-3.7l139-75.7c1.3-0.7,3-0.2,3.7,1.1s0.2,3-1.1,3.7
		l-139,75.7C1594.7,684.7,1594.2,684.9,1593.8,684.9z"/>
</g>
<g>
	<g>
		
			<linearGradient id="SVGID_17_" gradientUnits="userSpaceOnUse" x1="1548.2379" y1="210.8076" x2="1540.0863" y2="474.9192" gradientTransform="matrix(1 0 0 -1 0 800)">
			<stop  offset="0" style="stop-color:#210C6D"/>
			<stop  offset="0.7783" style="stop-color:#210C6D;stop-opacity:0"/>
		</linearGradient>
		<path class="st19" d="M1531.3,589.7c-1,0-2,0-2.9-0.1c-10-1-21.6-8.5-22.6-9.2L1317,475.5c-0.5-0.2-12.8-6.5-12.8-14.4
			c0-7.8,10.1-13,10.8-13.4l216.9-117.9c0.9-0.5,22-11.3,43.4,0c20.6,10.8,191.1,104.9,194.9,106.9c2.4,1.1,13.8,6.7,13.8,12.4
			c0,9.5-5.4,12.2-14.4,16.6l-1.5,0.7c-9.9,4.9-212.8,115.8-214.8,116.9C1552.8,583.6,1542.6,589.7,1531.3,589.7z M1554.3,327.8
			c-11.9,0-21,4.6-21.1,4.7l-216.9,117.9c-0.1,0-9.1,4.7-9.1,10.6c0,4.9,8,10.1,11.1,11.6l189,105h0.1c0.1,0.1,11.8,7.8,21.3,8.7
			c11.3,1.1,22.9-5.7,23-5.8c8.4-4.6,205.1-112,215-117l1.5-0.7c8.9-4.4,12.6-6.3,12.6-13.8c0-2.7-7.2-7.3-12.1-9.6l-0.1-0.1
			c-1.7-1-174.1-96.1-194.9-106.9C1567.1,329,1560.3,327.8,1554.3,327.8z"/>
	</g>
	<g>
		
			<linearGradient id="SVGID_18_" gradientUnits="userSpaceOnUse" x1="1468.3" y1="513.65" x2="1451.1814" y2="513.65" gradientTransform="matrix(1 0 0 -1 0 800)">
			<stop  offset="0" style="stop-color:#888FFD"/>
			<stop  offset="0.7817" style="stop-color:#6C74EC"/>
			<stop  offset="1" style="stop-color:#5961E0"/>
		</linearGradient>
		<polygon class="st20" points="1465.3,296.2 1451.2,279 1454.2,276.5 1468.3,293.7 		"/>
	</g>
	<g>
		
			<linearGradient id="SVGID_19_" gradientUnits="userSpaceOnUse" x1="1682.1389" y1="376.8564" x2="1411.0997" y2="372.3888" gradientTransform="matrix(1 0 0 -1 0 800)">
			<stop  offset="0" style="stop-color:#5961E0"/>
			<stop  offset="0.1458" style="stop-color:#5961E0"/>
			<stop  offset="0.3509" style="stop-color:#7077EE"/>
			<stop  offset="0.5017" style="stop-color:#9FA5F1"/>
			<stop  offset="0.5419" style="stop-color:#9FA5F1"/>
			<stop  offset="0.6661" style="stop-color:#737AF0"/>
			<stop  offset="1" style="stop-color:#888FFD"/>
		</linearGradient>
		<path class="st21" d="M1416.7,420.8l123.3-67.1c0,0,11.9-6.3,23.9,0s110.8,60.8,110.8,60.8s7.4,3.4,7.4,6.3c0,5.1-2.8,6.3-8.5,9.1
			c-5.7,2.8-122.2,66.5-122.2,66.5s-6.8,4.1-13.6,3.4c-5.7-0.6-12.5-5.1-12.5-5.1L1417.9,435c0,0-6.8-3.4-6.8-7.4
			C1411,423.7,1416.7,420.8,1416.7,420.8z"/>
		
			<linearGradient id="SVGID_20_" gradientUnits="userSpaceOnUse" x1="1682.4288" y1="392.7494" x2="1410.7384" y2="388.271" gradientTransform="matrix(1 0 0 -1 0 800)">
			<stop  offset="0" style="stop-color:#5961E0"/>
			<stop  offset="0.1458" style="stop-color:#5961E0"/>
			<stop  offset="0.3509" style="stop-color:#7077EE"/>
			<stop  offset="0.5017" style="stop-color:#9FA5F1"/>
			<stop  offset="0.5419" style="stop-color:#9FA5F1"/>
			<stop  offset="0.6661" style="stop-color:#737AF0"/>
			<stop  offset="1" style="stop-color:#888FFD"/>
		</linearGradient>
		<polygon class="st22" points="1411,394.1 1411,427.6 1540.9,499.8 1682.1,422.7 1682.1,387.3 1557.1,319.1 		"/>
	</g>
	
		<linearGradient id="SVGID_21_" gradientUnits="userSpaceOnUse" x1="1411.0988" y1="408.1098" x2="1682.1001" y2="408.1098" gradientTransform="matrix(1 0 0 -1 0 800)">
		<stop  offset="0" style="stop-color:#5961E0"/>
		<stop  offset="1" style="stop-color:#888FFD"/>
	</linearGradient>
	<path class="st23" d="M1416.7,387.3l123.3-67.1c0,0,11.9-6.3,23.9,0c11.9,6.3,110.8,60.8,110.8,60.8s7.4,3.4,7.4,6.3
		c0,5.1-2.8,6.3-8.5,9.1c-5.7,2.8-122.2,66.5-122.2,66.5s-6.8,4.1-13.6,3.4c-5.7-0.6-12.5-5.1-12.5-5.1l-107.4-59.7
		c0,0-6.8-3.4-6.8-7.4C1411,390.1,1416.7,387.3,1416.7,387.3z"/>
	<g>
		
			<linearGradient id="SVGID_22_" gradientUnits="userSpaceOnUse" x1="1304.2" y1="374.6176" x2="1783.9432" y2="374.6176" gradientTransform="matrix(1 0 0 -1 0 800)">
			<stop  offset="0" style="stop-color:#5961E0"/>
			<stop  offset="1" style="stop-color:#888FFD"/>
		</linearGradient>
		<path class="st24" d="M1531.3,557.9c-1,0-2,0-2.9-0.1c-10-1-21.6-8.5-22.6-9.2L1317,443.7c-0.5-0.2-12.8-6.5-12.8-14.4
			c0-7.8,10.1-13,10.8-13.4L1531.8,298c0.9-0.5,22-11.3,43.4,0c20.6,10.8,191.1,104.9,194.9,106.9c2.5,1.2,13.4,6.2,13.8,12.4
			c0.6,9.3-5.1,11.4-14.4,16.6l-1.5,0.7c-9.9,4.9-212.8,115.8-214.8,116.9C1552.8,551.9,1542.6,557.9,1531.3,557.9z M1554.3,296.1
			c-11.9,0-20.9,4.6-21.1,4.7l-216.9,117.9c-0.1,0-9.1,4.7-9.1,10.6c0,4.9,8,10.1,11.1,11.6l189,105h0.1c0.1,0.1,11.8,7.8,21.3,8.7
			c11.3,1.1,22.9-5.7,23-5.8c8.4-4.6,205.1-112,215-117l1.5-0.7c9.2-5.7,13.6-7.4,12.6-13.8c-0.6-4.2-7.5-7.2-12.1-9.6l-0.1-0.1
			c-1.7-1-174.1-96.1-194.9-106.9C1567.1,297.2,1560.3,296.1,1554.3,296.1z"/>
	</g>
	
		<linearGradient id="SVGID_23_" gradientUnits="userSpaceOnUse" x1="1508.1991" y1="410.6441" x2="1579.802" y2="410.6441" gradientTransform="matrix(1 0 0 -1 0 800)">
		<stop  offset="0" style="stop-color:#777DDD"/>
		<stop  offset="0.7948" style="stop-color:#5056C7"/>
	</linearGradient>
	<path class="st25" d="M1508.2,394.7c0,0-0.6,14.8,29.6,17c30.7,2.3,42.1-14.8,42.1-19.3s0-25.6,0-25.6h-71.6L1508.2,394.7
		L1508.2,394.7z"/>
	
		<linearGradient id="SVGID_24_" gradientUnits="userSpaceOnUse" x1="1646.1111" y1="492.8625" x2="1469.1794" y2="492.8625" gradientTransform="matrix(1 0 0 -1 0 800)">
		<stop  offset="0" style="stop-color:#5961E0"/>
		<stop  offset="0.1458" style="stop-color:#5961E0"/>
		<stop  offset="0.5556" style="stop-color:#969CF1"/>
		<stop  offset="0.6852" style="stop-color:#969CF1"/>
		<stop  offset="0.8802" style="stop-color:#888FFD"/>
	</linearGradient>
	<path class="st26" d="M1550.2,227.6l-86.3,44.3V344l0,0l0,0c0,4,6.8,7.4,6.8,7.4l54,30.1c0,0,6.8,4.5,12.5,5.1
		c1.2,0.1,2.3,0.1,3.4,0l0,0h0.1c5.4-0.6,10.1-3.4,10.1-3.4s59.1-31.3,64.8-34.1c5.3-2.6,8.1-3.8,8.5-8.1l0,0v-73.2L1550.2,227.6z"
		/>
	
		<linearGradient id="SVGID_25_" gradientUnits="userSpaceOnUse" x1="1463.9987" y1="528.8598" x2="1624.2001" y2="528.8598" gradientTransform="matrix(1 0 0 -1 0 800)">
		<stop  offset="0" style="stop-color:#9FA5FD"/>
		<stop  offset="0.7948" style="stop-color:#7B81E6"/>
	</linearGradient>
	<path class="st27" d="M1469.6,265.1l65.9-34.7c0,0,11.9-6.3,23.9,0c11.9,6.3,57.4,31.3,57.4,31.3s7.4,3.4,7.4,6.3
		c0,5.1-2.8,6.3-8.5,9.1c-5.7,2.8-64.8,34.1-64.8,34.1s-6.8,4.1-13.6,3.4c-5.7-0.6-12.5-5.1-12.5-5.1l-54-30.1c0,0-6.8-3.4-6.8-7.4
		C1463.9,268,1469.6,265.1,1469.6,265.1z"/>
	
		<linearGradient id="SVGID_26_" gradientUnits="userSpaceOnUse" x1="1473" y1="578.4" x2="1620.7502" y2="578.4" gradientTransform="matrix(1 0 0 -1 0 800)">
		<stop  offset="0" style="stop-color:#8389F2"/>
		<stop  offset="0.2496" style="stop-color:#767DED"/>
		<stop  offset="0.7948" style="stop-color:#5B62E2"/>
	</linearGradient>
	<path class="st28" d="M1473,182.1l38.1,54.6l11.4,27.8c0,0,40.3-1.3,50.6-9.1c4.4-3.3,9.7-19.9,9.7-19.9l38.1-56.8L1473,182.1z"/>
	
		<linearGradient id="SVGID_27_" gradientUnits="userSpaceOnUse" x1="1511.0991" y1="539.3441" x2="1582.7021" y2="539.3441" gradientTransform="matrix(1 0 0 -1 0 800)">
		<stop  offset="0" style="stop-color:#8389F2"/>
		<stop  offset="0.7948" style="stop-color:#5B62E2"/>
	</linearGradient>
	<path class="st29" d="M1511.1,269.1c0,0-0.6,14.8,29.6,17c30.7,2.3,42.1-14.8,42.1-19.3s0-31.8,0-31.8s0,7.4-18.2,14.8
		c-8,3.3-23.9,3.4-35.2,0.6c-15.5-3.9-18.2-13.6-18.2-13.6v32.3H1511.1z"/>
	
		<linearGradient id="SVGID_28_" gradientUnits="userSpaceOnUse" x1="1494.1692" y1="754.312" x2="1563.2892" y2="608.4688" gradientTransform="matrix(1 0 0 -1 0 800)">
		<stop  offset="0" style="stop-color:#71EEFF"/>
		<stop  offset="0.675" style="stop-color:#969DFF"/>
		<stop  offset="0.9074" style="stop-color:#6B8EFB"/>
	</linearGradient>
	<path class="st30" d="M1602.8,124.5c0,0-35.2-17-84.7-4.5c-49.4,12.5-76.1,54-21,79c37.5,15.9,84.4,4.3,100.6-4
		c12.5-6.3,34.7-19.9,33-41.5C1629.5,140.4,1613.6,128.4,1602.8,124.5z"/>
	
		<linearGradient id="SVGID_29_" gradientUnits="userSpaceOnUse" x1="1552.3042" y1="599.7474" x2="1544.9166" y2="682.7149" gradientTransform="matrix(1 0 0 -1 0 800)">
		<stop  offset="0" style="stop-color:#71EEFF"/>
		<stop  offset="0.6397" style="stop-color:#6B90FB"/>
	</linearGradient>
	<path class="st31" d="M1600,127c0,0-33.3-15.9-80-4.2c-46.7,11.6-71.9,50.2-19.9,73.5c35.4,14.8,83.2,2.1,95-3.7
		s32.7-18.5,31.1-38.6C1625.3,141.8,1610.2,130.7,1600,127z"/>
	
		<linearGradient id="SVGID_30_" gradientUnits="userSpaceOnUse" x1="1548.5973" y1="611.729" x2="1548.5973" y2="837.7624" gradientTransform="matrix(1 0 0 -1 0 800)">
		<stop  offset="0" style="stop-color:#71EEFF;stop-opacity:0.8"/>
		<stop  offset="0.2275" style="stop-color:#6B90FB;stop-opacity:0.3729"/>
		<stop  offset="0.4685" style="stop-color:#54FEEC;stop-opacity:0.1461"/>
		<stop  offset="0.6992" style="stop-color:#52FFEB;stop-opacity:0"/>
	</linearGradient>
	<path class="st32" d="M1626.1-10v163.7c1.7,20.5-20,32.7-26.1,36.4c-10.8,6.3-45.5,17.6-79.7,11.7c-47.9-7.6-49.3-35.6-49.3-35.6
		V-10"/>
	
		<linearGradient id="SVGID_31_" gradientUnits="userSpaceOnUse" x1="1473" y1="468.0108" x2="1524.1443" y2="468.0108" gradientTransform="matrix(1 0 0 -1 0 800)">
		<stop  offset="0.1315" style="stop-color:#5B62E2"/>
		<stop  offset="1" style="stop-color:#8389F2"/>
	</linearGradient>
	<path class="st33" d="M1473,320.5v-19.9c0,0,0-1.7,0.6-2.8s2.3-1.1,3.4-0.6c1.1,0.6,43.2,23.3,43.2,23.3s4,2.3,4,6.8s0,39.8,0,39.8
		L1473,337V320.5z"/>
	
		<linearGradient id="SVGID_32_" gradientUnits="userSpaceOnUse" x1="1468.9982" y1="437.8663" x2="1533.3854" y2="494.8242" gradientTransform="matrix(1 0 0 -1 0 800)">
		<stop  offset="0" style="stop-color:#A1A5FD"/>
		<stop  offset="0.9049" style="stop-color:#7478EA"/>
	</linearGradient>
	<path class="st34" d="M1497.7,308.3l-43.8,23.9c0,0-5.1,2.3-8,8.5c-2.8,6.3-0.6,11.4,1.1,12.5s50.7,27.5,50.7,27.5
		s-3.8-1.1-3.2-7.9c0.4-4.5,2.9-7.9,4.6-9.8c0.8-0.9,1.8-1.7,2.9-2.3l22-12.1v-18.8c0-2,0.6-3.4-1.1-6.3c-1.3-2.2-2.7-3.2-5.1-4.5
		C1512.8,316.3,1497.7,308.3,1497.7,308.3z"/>
	
		<linearGradient id="SVGID_33_" gradientUnits="userSpaceOnUse" x1="1494.495" y1="435.1879" x2="1524.1001" y2="435.1879" gradientTransform="matrix(1 0 0 -1 0 800)">
		<stop  offset="0" style="stop-color:#8389F2"/>
		<stop  offset="1" style="stop-color:#5B62E2"/>
	</linearGradient>
	<path class="st35" d="M1524.1,368l-22.1,11.9c0,0-2.2,1.1-4.2,0.9c-1-0.3-2.4-1.7-2.7-2.7c-0.3-1-1.6-5,0.9-10.2s5.7-6.8,6.1-7
		s22-12.1,22-12.1L1524.1,368L1524.1,368z"/>
	<path class="st36" d="M1508.7,366.6c0.6,2.9-1.1,6.8-3.8,8.6s-5.3,1.2-5.8-1.5s1.2-6.6,3.8-8.6S1508.2,363.7,1508.7,366.6z"/>
	<path class="st36" d="M1520.9,359.7c0.6,2.9-1.1,6.8-3.8,8.6s-5.3,1.2-5.8-1.5s1.2-6.6,3.8-8.6S1520.3,356.8,1520.9,359.7z"/>
	<g>
		<path class="st37" d="M1481.9,357.6c-0.1,0-0.2,0-0.3-0.1l-20.3-11.4c-0.2-0.1-0.3-0.5-0.2-0.7c0.1-0.3,0.5-0.3,0.7-0.2l20.3,11.4
			c0.2,0.1,0.3,0.5,0.2,0.7C1482.3,357.5,1482.1,357.6,1481.9,357.6z"/>
	</g>
	<g>
		<path class="st37" d="M1491.7,350.9c-0.1,0-0.2,0-0.3-0.1l-20.3-11.4c-0.2-0.1-0.3-0.5-0.2-0.7c0.1-0.3,0.5-0.3,0.7-0.2l20.3,11.4
			c0.2,0.1,0.3,0.5,0.2,0.7C1492,350.8,1491.9,350.9,1491.7,350.9z"/>
	</g>
	<g>
		<path class="st37" d="M1501.4,344.1c-0.1,0-0.2,0-0.3-0.1l-20.3-11.4c-0.2-0.1-0.3-0.5-0.2-0.7c0.1-0.2,0.5-0.3,0.7-0.2l20.3,11.4
			c0.2,0.1,0.3,0.5,0.2,0.7C1501.8,344,1501.6,344.1,1501.4,344.1z"/>
	</g>
	<g>
		<path class="st37" d="M1511.2,337.4c-0.1,0-0.2,0-0.3-0.1l-20.3-11.4c-0.2-0.1-0.3-0.5-0.2-0.7c0.1-0.2,0.5-0.3,0.7-0.2l20.3,11.4
			c0.2,0.1,0.3,0.5,0.2,0.7C1511.6,337.3,1511.4,337.4,1511.2,337.4z"/>
	</g>
	<g>
		<path class="st37" d="M1480.1,367.2c-0.1,0-0.2,0-0.3-0.1l-20.3-11.4c-0.2-0.1-0.3-0.5-0.2-0.7c0.1-0.2,0.5-0.3,0.7-0.2l20.3,11.4
			c0.2,0.1,0.3,0.5,0.2,0.7C1480.5,367.1,1480.3,367.2,1480.1,367.2z"/>
	</g>
	<path class="st38" d="M1607.7,339.8l-37.1,20.5c-5.1,3-6.4,0.2-6.6-4.1l-0.6-29.5c-0.1-4.2,1.7-8.9,6.1-11.5l38.2-21
		c4.4-2.4,6.2-0.2,6.2,3.4v31.2C1614,334.9,1612.2,337.1,1607.7,339.8z"/>
	
		<linearGradient id="SVGID_34_" gradientUnits="userSpaceOnUse" x1="1529.559" y1="542.3501" x2="1620.2072" y2="455.4294" gradientTransform="matrix(1 0 0 -1 0 800)">
		<stop  offset="0.44" style="stop-color:#52FFEB"/>
		<stop  offset="1" style="stop-color:#52FFEB;stop-opacity:0"/>
	</linearGradient>
	<path class="st39" d="M1611.1,293.1l60.9,32.3l-14.7,46l-34.9,22.2l-56-32.2c0,0-1.9-0.1-2.3-4.1c0,0-0.1-0.7-0.1-0.8l-0.6-29.9
		c0,0-0.1-3.8,1.5-6.7c1.6-2.9,2.7-3.5,3.4-4.1c0.7-0.6,2.3-1.4,2.3-1.4l36.3-19.9C1607,294.5,1609.5,293,1611.1,293.1z"/>
	<path class="st40" d="M1613.5,342.2l-30.3,16.7c-4.1,2.4-5.2,0.1-5.4-3.3l-0.5-24.1c-0.1-3.4,1.4-7.3,5-9.4l31.2-17.1
		c3.6-2,5-0.2,5,2.8v25.4C1618.6,338.3,1617.2,340.1,1613.5,342.2z"/>
	<g>
		
			<linearGradient id="SVGID_35_" gradientUnits="userSpaceOnUse" x1="1571.4991" y1="483.7699" x2="1606.2817" y2="461.6008" gradientTransform="matrix(1 0 0 -1 0 800)">
			<stop  offset="0" style="stop-color:#1CF8DF"/>
			<stop  offset="1" style="stop-color:#4FEAD8"/>
		</linearGradient>
		<path class="st41" d="M1570.8,356.1c-0.5,0-0.9-0.1-1.3-0.3c-1.1-0.6-1.7-2.1-1.8-4.6l-0.5-24.4c-0.1-4.3,1.9-8,5.3-10l31.6-17.4
			c1.8-1,3.2-1.2,4.3-0.5c1,0.6,1.6,1.9,1.6,3.8v25.8c0,5.5-1.7,7.4-5.5,9.6l0,0l-30.7,16.9C1572.7,355.7,1571.7,356.1,1570.8,356.1
			z M1607.1,299.5c-0.6,0-1.5,0.3-2.4,0.8l-31.6,17.4c-3.1,1.8-4.9,5.2-4.8,9.1l0.5,24.4c0.1,2,0.5,3.3,1.3,3.7
			c0.7,0.4,1.9,0.1,3.4-0.8l30.7-17c3.6-2.1,4.9-3.7,4.9-8.7v-25.8c0-1.5-0.4-2.5-1.1-2.9C1607.8,299.6,1607.5,299.5,1607.1,299.5z"
			/>
	</g>
	
		<linearGradient id="SVGID_36_" gradientUnits="userSpaceOnUse" x1="1575.1481" y1="437.3458" x2="1621.5371" y2="500.0058" gradientTransform="matrix(1 0 0 -1 0 800)">
		<stop  offset="0" style="stop-color:#DEF9F5;stop-opacity:0.6"/>
		<stop  offset="0.148" style="stop-color:#DEF9F5"/>
		<stop  offset="0.7955" style="stop-color:#DEF9F5"/>
		<stop  offset="0.9897" style="stop-color:#DEF9F5;stop-opacity:0.6"/>
	</linearGradient>
	<path class="st42" d="M1608.7,293.7c0,0,2.9,0.1,3,4.7c0.1,2-0.1,30.3-0.1,30.3s0,3.2-0.5,4.8c-0.5,1.8-2.9,3.5-4.5,4.4
		c-1.1,0.7-41.4,22.8-41.4,22.8s0.6,1,2.1,0.8c0.9-0.1,1.8-0.5,2.2-0.7c0.6-0.3,38.2-21,38.2-21s2.4-1.3,3.5-2.4s2.4-2.8,2.7-6
		c0.2-1.7,0.1-2.6,0.1-2.6v-31.2c0,0,0.1-1.9-0.7-3.2C1611.7,292,1608.7,293.7,1608.7,293.7z"/>
	<g>
		<path class="st5" d="M1579.8,360.5c-0.5,0-0.9-0.1-1.3-0.3c-1.1-0.6-1.7-2.1-1.8-4.6l-0.5-24.4c-0.1-4.3,1.9-8,5.3-10l31.6-17.4
			c1.8-1,3.2-1.2,4.3-0.5c1,0.6,1.6,1.9,1.6,3.8v25.8c0,5.5-1.7,7.4-5.5,9.6l0,0l-30.7,16.9C1581.7,360.1,1580.6,360.5,1579.8,360.5
			z M1616.1,303.9c-0.6,0-1.5,0.3-2.4,0.8l-31.6,17.4c-3.1,1.8-4.9,5.2-4.8,9.1l0.5,24.4c0.1,2,0.5,3.3,1.3,3.7
			c0.7,0.4,1.9,0.1,3.4-0.8l30.7-17c3.6-2.1,4.9-3.7,4.9-8.7V307c0-1.5-0.4-2.5-1.1-2.9C1616.7,304,1616.4,303.9,1616.1,303.9z"/>
	</g>
	<path class="st5" d="M1587.1,465.6l-15.7,8.7c-1.4,0.8-1.8,0.1-1.8-1.1l-0.2-3.6c0-1.2,0.5-2.5,1.7-3.2l16.1-8.8
		c1.2-0.7,1.7-0.1,1.7,0.9v4.1C1588.9,464.2,1588.4,464.8,1587.1,465.6z"/>
	<path class="st5" d="M1657.2,425.1l-15.7,8.7c-1.4,0.8-1.8,0.1-1.8-1.1l-0.2-3.6c0-1.2,0.5-2.5,1.7-3.2l16.1-8.8
		c1.2-0.7,1.7-0.1,1.7,0.9v4.1C1659,423.8,1658.5,424.4,1657.2,425.1z"/>
	<g>
		<g>
			<path class="st43" d="M1497.5,340.3c0,5.1-7,9.6-15.6,10s-15.6-3.4-15.6-8.5s7-9.6,15.6-10S1497.5,335.1,1497.5,340.3z"/>
		</g>
		<polygon class="st43" points="1466.3,338.3 1466.3,341.7 1497.5,340 1497.5,336.9 		"/>
		<g>
			
				<linearGradient id="SVGID_37_" gradientUnits="userSpaceOnUse" x1="1474.4609" y1="471.8612" x2="1489.3534" y2="452.8791" gradientTransform="matrix(1 0 0 -1 0 800)">
				<stop  offset="0" style="stop-color:#FFCD64"/>
				<stop  offset="0.931" style="stop-color:#FFDB8F"/>
			</linearGradient>
			<path class="st44" d="M1497.5,336.9c0,5.1-7,9.6-15.6,10s-15.6-3.4-15.6-8.5s7-9.6,15.6-10
				C1490.5,327.9,1497.5,331.7,1497.5,336.9z"/>
		</g>
		
			<linearGradient id="SVGID_38_" gradientUnits="userSpaceOnUse" x1="1476.2113" y1="471.697" x2="1487.5861" y2="453.1073" gradientTransform="matrix(1 0 0 -1 0 800)">
			<stop  offset="0" style="stop-color:#FFCD64;stop-opacity:0"/>
			<stop  offset="1" style="stop-color:#F1F2F2"/>
		</linearGradient>
		<path class="st45" d="M1483.2,328.3v0.3c7.9,0,14.1,3.6,14.1,8.3c0,5-6.9,9.3-15.3,9.7c-0.4,0-0.8,0-1.2,0
			c-7.9,0-14.1-3.6-14.1-8.3c0-5,6.9-9.3,15.3-9.7c0.4,0,0.8,0,1.2,0V328.3 M1483.2,328.3c-0.4,0-0.8,0-1.3,0
			c-8.6,0.4-15.6,4.9-15.6,10c0,4.9,6.3,8.6,14.3,8.6c0.4,0,0.8,0,1.3,0c8.6-0.4,15.6-4.9,15.6-10
			C1497.5,332,1491.2,328.3,1483.2,328.3L1483.2,328.3z"/>
		<g>
			<path class="st46" d="M1480.9,345.4c-4.2,0-7.9-1.2-10.1-3.3c-1.2-1.2-1.9-2.5-1.9-4c0-4.3,5.8-8.1,13-8.4
				c4.6-0.2,8.8,1,11.1,3.3c1.2,1.2,1.9,2.5,1.9,4c0,4.3-5.8,8.1-13,8.4C1481.6,345.4,1481.2,345.4,1480.9,345.4z M1482.9,330.3
				c-0.3,0-0.7,0-1,0c-6.9,0.3-12.5,3.9-12.5,7.9c0,1.3,0.6,2.5,1.7,3.6c2.2,2.1,6.3,3.3,10.8,3.1c6.9-0.3,12.5-3.9,12.5-7.9
				c0-1.3-0.6-2.5-1.7-3.6C1490.6,331.4,1486.9,330.3,1482.9,330.3z"/>
		</g>
		<g>
			<g>
				<path class="st46" d="M1481.7,340.9c0.7,0.1,1.3,0,2-0.1c0.7-0.2,1.3-0.4,1.8-0.7c0.3-0.2,0.6-0.3,0.8-0.6
					c0.2-0.2,0.4-0.4,0.6-0.7c0.1-0.2,0.2-0.4,0.1-0.6c0-0.2-0.2-0.4-0.5-0.6c-0.4-0.2-0.8-0.3-1.3-0.3s-1.1,0.1-1.7,0.3
					c-0.6,0.2-1.3,0.3-1.9,0.5c-0.7,0.2-1.4,0.4-2.1,0.4c-0.7,0.1-1.4,0.1-2.1,0s-1.3-0.4-1.9-0.8c-0.3-0.2-0.5-0.4-0.6-0.7
					c-0.1-0.3-0.2-0.6-0.1-1c0.1-0.3,0.3-0.7,0.7-1.1c0.4-0.4,1-0.7,1.7-1.1c0.7-0.3,1.4-0.6,2.2-0.8c0.8-0.2,1.7-0.3,2.6-0.2
					l-0.4,1.2c-0.5-0.1-1,0-1.5,0.1c-0.6,0.1-1.1,0.3-1.6,0.5s-0.8,0.4-1.1,0.7c-0.2,0.2-0.4,0.4-0.4,0.6s0,0.4,0.1,0.5
					c0.1,0.2,0.2,0.3,0.4,0.4c0.4,0.3,0.9,0.4,1.4,0.4s1.1-0.1,1.7-0.2s1.2-0.3,1.9-0.5c0.7-0.2,1.3-0.4,2-0.5s1.3-0.2,2-0.1
					c0.7,0,1.3,0.2,1.9,0.6c0.5,0.3,0.8,0.6,0.9,0.9c0.1,0.4,0.1,0.7,0,1.1c-0.2,0.4-0.5,0.8-0.9,1.2c-0.4,0.4-1,0.8-1.6,1.1
					c-0.9,0.5-1.8,0.8-2.8,1.1c-1,0.3-1.9,0.4-2.8,0.3L1481.7,340.9z"/>
			</g>
			<polygon class="st46" points="1487.9,341.2 1487.3,341.5 1475.4,333.7 1475.9,333.5 			"/>
		</g>
	</g>
	<g>
		<g>
			<path class="st43" d="M1476.6,401.1c0,5.1-7,9.6-15.6,10s-15.6-3.4-15.6-8.5s7-9.6,15.6-10C1469.7,392.1,1476.6,396,1476.6,401.1
				z"/>
		</g>
		<polygon class="st43" points="1445.5,399.2 1445.5,402.5 1476.6,400.9 1476.6,397.7 		"/>
		<g>
			
				<linearGradient id="SVGID_39_" gradientUnits="userSpaceOnUse" x1="1453.5802" y1="411.025" x2="1468.4728" y2="392.0428" gradientTransform="matrix(1 0 0 -1 0 800)">
				<stop  offset="0" style="stop-color:#FFCD64"/>
				<stop  offset="0.931" style="stop-color:#FFDB8F"/>
			</linearGradient>
			<path class="st47" d="M1476.6,397.7c0,5.1-7,9.6-15.6,10s-15.6-3.4-15.6-8.5s7-9.6,15.6-10
				C1469.7,388.7,1476.6,392.6,1476.6,397.7z"/>
		</g>
		
			<linearGradient id="SVGID_40_" gradientUnits="userSpaceOnUse" x1="1455.3309" y1="410.8649" x2="1466.7058" y2="392.2752" gradientTransform="matrix(1 0 0 -1 0 800)">
			<stop  offset="0" style="stop-color:#FFCD64;stop-opacity:0"/>
			<stop  offset="1" style="stop-color:#F1F2F2"/>
		</linearGradient>
		<path class="st48" d="M1462.3,389.1v0.3c7.9,0,14.1,3.6,14.1,8.3c0,5-6.9,9.3-15.3,9.7c-0.4,0-0.8,0-1.2,0
			c-7.9,0-14.1-3.6-14.1-8.3c0-5,6.9-9.3,15.3-9.7c0.4,0,0.8,0,1.2,0V389.1 M1462.3,389.1c-0.4,0-0.8,0-1.3,0
			c-8.6,0.4-15.6,4.9-15.6,10c0,4.9,6.3,8.6,14.3,8.6c0.4,0,0.8,0,1.3,0c8.6-0.4,15.6-4.9,15.6-10
			C1476.6,392.8,1470.3,389.1,1462.3,389.1L1462.3,389.1z"/>
		<g>
			<path class="st46" d="M1460,406.3c-4.2,0-7.9-1.2-10.1-3.3c-1.2-1.2-1.9-2.5-1.9-4c0-4.3,5.8-8.1,13-8.4c4.6-0.2,8.8,1,11.1,3.3
				c1.2,1.2,1.9,2.5,1.9,4c0,4.3-5.8,8.1-13,8.4C1460.7,406.2,1460.4,406.3,1460,406.3z M1462,391.1c-0.3,0-0.7,0-1,0
				c-6.9,0.3-12.5,3.9-12.5,7.9c0,1.3,0.6,2.5,1.7,3.6c2.2,2.1,6.3,3.3,10.8,3.1c6.9-0.3,12.5-3.9,12.5-7.9c0-1.3-0.6-2.5-1.7-3.6
				C1469.7,392.3,1466.1,391.1,1462,391.1z"/>
		</g>
		<g>
			<g>
				<path class="st46" d="M1460.8,401.8c0.7,0.1,1.3,0,2-0.1c0.7-0.2,1.3-0.4,1.8-0.7c0.3-0.2,0.6-0.3,0.8-0.6
					c0.2-0.2,0.4-0.4,0.6-0.7c0.1-0.2,0.2-0.4,0.1-0.6c0-0.2-0.2-0.4-0.5-0.6c-0.4-0.2-0.8-0.3-1.3-0.3s-1.1,0.1-1.7,0.3
					c-0.6,0.2-1.3,0.3-1.9,0.5c-0.7,0.2-1.4,0.4-2.1,0.4c-0.7,0.1-1.4,0.1-2.1,0s-1.3-0.4-1.9-0.8c-0.3-0.2-0.5-0.4-0.6-0.7
					c-0.1-0.3-0.2-0.6-0.1-1c0.1-0.3,0.3-0.7,0.7-1.1c0.4-0.4,1-0.7,1.7-1.1c0.7-0.3,1.4-0.6,2.2-0.8c0.8-0.2,1.7-0.3,2.6-0.2
					l-0.4,1.2c-0.5-0.1-1,0-1.5,0.1c-0.6,0.1-1.1,0.3-1.6,0.5s-0.8,0.4-1.1,0.7c-0.2,0.2-0.4,0.4-0.4,0.6s0,0.4,0.1,0.5
					c0.1,0.2,0.2,0.3,0.4,0.4c0.4,0.3,0.9,0.4,1.4,0.4s1.1-0.1,1.7-0.2s1.3-0.3,1.9-0.5c0.7-0.2,1.3-0.4,2-0.5s1.3-0.2,2-0.1
					c0.7,0,1.3,0.2,1.9,0.6c0.5,0.3,0.8,0.6,0.9,0.9c0.1,0.4,0.1,0.7,0,1.1c-0.2,0.4-0.5,0.8-0.9,1.2c-0.4,0.4-1,0.8-1.6,1.1
					c-0.9,0.5-1.8,0.8-2.8,1.1c-1,0.3-1.9,0.4-2.8,0.3L1460.8,401.8z"/>
			</g>
			<polygon class="st46" points="1467,402 1466.4,402.3 1454.5,394.5 1455.1,394.3 			"/>
		</g>
	</g>
	<g>
		<g>
			<defs>
				<path id="SVGID_41_" d="M1473,320.5v-19.9c0,0,0-1.7,0.6-2.8s2.3-1.1,3.4-0.6c1.1,0.6,43.2,23.3,43.2,23.3s4,2.3,4,6.8
					s0,39.8,0,39.8L1473,337V320.5z"/>
			</defs>
			<clipPath id="SVGID_42_">
				<use xlink:href="#SVGID_41_"  style="overflow:visible;"/>
			</clipPath>
			<g class="st49">
				<g>
					<path class="st43" d="M1530.2,322.9c0,5.1-7,9.6-15.6,10s-15.6-3.4-15.6-8.5s7-9.6,15.6-10S1530.2,317.8,1530.2,322.9z"/>
				</g>
				<polygon class="st43" points="1499.1,321 1499.1,324.4 1530.2,322.7 1530.2,319.5 				"/>
				<g>
					
						<linearGradient id="SVGID_43_" gradientUnits="userSpaceOnUse" x1="1507.1814" y1="489.2058" x2="1522.074" y2="470.2237" gradientTransform="matrix(1 0 0 -1 0 800)">
						<stop  offset="0" style="stop-color:#FFCD64"/>
						<stop  offset="0.931" style="stop-color:#FFDB8F"/>
					</linearGradient>
					<path class="st50" d="M1530.2,319.5c0,5.1-7,9.6-15.6,10s-15.6-3.4-15.6-8.5s7-9.6,15.6-10S1530.2,314.4,1530.2,319.5z"/>
				</g>
				
					<linearGradient id="SVGID_44_" gradientUnits="userSpaceOnUse" x1="1508.9391" y1="489.0515" x2="1520.3138" y2="470.4618" gradientTransform="matrix(1 0 0 -1 0 800)">
					<stop  offset="0" style="stop-color:#FFCD64;stop-opacity:0"/>
					<stop  offset="1" style="stop-color:#F1F2F2"/>
				</linearGradient>
				<path class="st51" d="M1515.9,310.9v0.3c7.9,0,14.1,3.6,14.1,8.3c0,5-6.9,9.3-15.3,9.7c-0.4,0-0.8,0-1.2,0
					c-7.9,0-14.1-3.6-14.1-8.3c0-5,6.9-9.3,15.3-9.7c0.4,0,0.8,0,1.2,0V310.9 M1515.9,310.9c-0.4,0-0.8,0-1.3,0
					c-8.6,0.4-15.6,4.9-15.6,10c0,4.9,6.3,8.6,14.3,8.6c0.4,0,0.8,0,1.3,0c8.6-0.4,15.6-4.9,15.6-10
					C1530.2,314.6,1523.9,310.9,1515.9,310.9L1515.9,310.9z"/>
				<g>
					<path class="st46" d="M1513.6,328.1c-4.2,0-7.9-1.2-10.1-3.3c-1.2-1.2-1.9-2.5-1.9-4c0-4.3,5.8-8.1,13-8.4
						c4.6-0.2,8.8,1,11.1,3.3c1.2,1.2,1.9,2.5,1.9,4c0,4.3-5.8,8.1-13,8.4C1514.3,328.1,1514,328.1,1513.6,328.1z M1515.7,312.9
						c-0.3,0-0.7,0-1,0c-6.9,0.3-12.5,3.9-12.5,7.9c0,1.3,0.6,2.5,1.7,3.6c2.2,2.1,6.3,3.3,10.8,3.1c6.9-0.3,12.5-3.9,12.5-7.9
						c0-1.3-0.6-2.5-1.7-3.6C1523.3,314.1,1519.7,312.9,1515.7,312.9z"/>
				</g>
				<g>
					<g>
						<path class="st46" d="M1514.4,323.6c0.7,0.1,1.3,0,2-0.1c0.7-0.2,1.3-0.4,1.8-0.7c0.3-0.2,0.6-0.3,0.8-0.6
							c0.2-0.2,0.4-0.4,0.6-0.7c0.1-0.2,0.2-0.4,0.1-0.6c0-0.2-0.2-0.4-0.5-0.6c-0.4-0.2-0.8-0.3-1.3-0.3s-1.1,0.1-1.7,0.3
							c-0.6,0.2-1.3,0.3-1.9,0.5c-0.7,0.2-1.4,0.4-2.1,0.4c-0.7,0.1-1.4,0.1-2.1,0s-1.3-0.4-1.9-0.8c-0.3-0.2-0.5-0.4-0.6-0.7
							c-0.1-0.3-0.2-0.6-0.1-1c0.1-0.3,0.3-0.7,0.7-1.1c0.4-0.4,1-0.7,1.7-1.1c0.7-0.3,1.4-0.6,2.2-0.8c0.8-0.2,1.7-0.3,2.6-0.2
							l-0.4,1.2c-0.5-0.1-1,0-1.5,0.1c-0.6,0.1-1.1,0.3-1.6,0.5s-0.8,0.4-1.1,0.7c-0.2,0.2-0.4,0.4-0.4,0.6s0,0.4,0.1,0.5
							c0.1,0.2,0.2,0.3,0.4,0.4c0.4,0.3,0.9,0.4,1.4,0.4s1.1-0.1,1.7-0.2s1.2-0.3,1.9-0.5c0.7-0.2,1.3-0.4,2-0.5s1.3-0.2,2-0.1
							c0.7,0,1.3,0.2,1.9,0.6c0.5,0.3,0.8,0.6,0.9,0.9c0.1,0.4,0.1,0.7,0,1.1c-0.2,0.4-0.5,0.8-0.9,1.2c-0.4,0.4-1,0.8-1.6,1.1
							c-0.9,0.5-1.8,0.8-2.8,1.1c-1,0.3-1.9,0.4-2.8,0.3L1514.4,323.6z"/>
					</g>
					<polygon class="st46" points="1520.6,323.8 1520.1,324.1 1508.1,316.3 1508.7,316.1 					"/>
				</g>
			</g>
		</g>
	</g>
	
		<linearGradient id="SVGID_45_" gradientUnits="userSpaceOnUse" x1="1450.6505" y1="529.0956" x2="1452.0353" y2="518.0176" gradientTransform="matrix(1 0 0 -1 0 800)">
		<stop  offset="1.953125e-02" style="stop-color:#888FFD"/>
		<stop  offset="0.9327" style="stop-color:#5961E0"/>
	</linearGradient>
	<circle class="st52" cx="1451.2" cy="275.3" r="5.9"/>
	
		<linearGradient id="SVGID_46_" gradientUnits="userSpaceOnUse" x1="1592.4127" y1="339.9146" x2="1615.0328" y2="286.7203" gradientTransform="matrix(1 0 0 -1 0 800)">
		<stop  offset="0" style="stop-color:#FFFFFF"/>
		<stop  offset="0.4939" style="stop-color:#71EEFF;stop-opacity:0.2"/>
		<stop  offset="0.6867" style="stop-color:#494EC2;stop-opacity:0.1169"/>
		<stop  offset="0.9627" style="stop-color:#390FAA;stop-opacity:0.1"/>
	</linearGradient>
	<polygon class="st53" points="1569.4,471 1588.9,460.5 1633,490.5 1612.7,500.7 	"/>
	
		<linearGradient id="SVGID_47_" gradientUnits="userSpaceOnUse" x1="1662.5245" y1="380.1366" x2="1685.1447" y2="326.9423" gradientTransform="matrix(1 0 0 -1 0 800)">
		<stop  offset="0" style="stop-color:#FFFFFF"/>
		<stop  offset="0.4939" style="stop-color:#71EEFF;stop-opacity:0.2"/>
		<stop  offset="0.6867" style="stop-color:#494EC2;stop-opacity:0.1169"/>
		<stop  offset="0.9627" style="stop-color:#390FAA;stop-opacity:0.1"/>
	</linearGradient>
	<polygon class="st54" points="1639.5,430.8 1659,420.3 1703.1,450.2 1682.7,460.5 	"/>
	<path class="st5" d="M1501.8,469.1l15.7,8.7c1.4,0.8,1.8,0.1,1.8-1.1l0.2-3.6c0-1.2-0.5-2.5-1.7-3.2l-16.1-8.8
		c-1.2-0.7-1.7-0.1-1.7,0.9v4.1C1500.1,467.8,1500.5,468.4,1501.8,469.1z"/>
	<path class="st5" d="M1431.7,428.6l15.7,8.7c1.4,0.8,1.8,0.1,1.8-1.1l0.2-3.6c0-1.2-0.5-2.5-1.7-3.2l-16.1-8.8
		c-1.2-0.7-1.7-0.1-1.7,0.9v4.1C1430,427.3,1430.5,427.9,1431.7,428.6z"/>
	
		<linearGradient id="SVGID_48_" gradientUnits="userSpaceOnUse" x1="2452.1558" y1="336.4164" x2="2474.7759" y2="283.222" gradientTransform="matrix(-1 0 0 -1 3948.6438 800)">
		<stop  offset="0" style="stop-color:#FFFFFF"/>
		<stop  offset="0.4939" style="stop-color:#71EEFF;stop-opacity:0.2"/>
		<stop  offset="0.6867" style="stop-color:#494EC2;stop-opacity:0.1169"/>
		<stop  offset="0.9627" style="stop-color:#390FAA;stop-opacity:0.1"/>
	</linearGradient>
	<polygon class="st55" points="1519.5,474.5 1500.1,464 1455.9,494 1476.3,504.2 	"/>
	
		<linearGradient id="SVGID_49_" gradientUnits="userSpaceOnUse" x1="2522.2073" y1="376.6126" x2="2544.8274" y2="323.4183" gradientTransform="matrix(-1 0 0 -1 3948.6438 800)">
		<stop  offset="0" style="stop-color:#FFFFFF"/>
		<stop  offset="0.4939" style="stop-color:#71EEFF;stop-opacity:0.2"/>
		<stop  offset="0.6867" style="stop-color:#494EC2;stop-opacity:0.1169"/>
		<stop  offset="0.9627" style="stop-color:#390FAA;stop-opacity:0.1"/>
	</linearGradient>
	<polygon class="st56" points="1449.5,434.3 1430,423.8 1385.8,453.8 1406.2,464 	"/>
	<g>
		<g>
			<path class="st57" d="M1567.2,125.6c11-9.7,8.4-30.8-10.9-32.7V82.7h-7.4v10h-10.3v-10h-7.4v10h-14.4v9.5h8.2v51.6h-8.2v9.9h14.4
				V174h7.4v-10.2h10.3V174h7.4v-10.2h3.3C1584.6,163.7,1588.5,131.8,1567.2,125.6z M1538.5,102.2h12.8c9.7,0,11,20,0,20.2h-12.8
				V102.2z M1556,153.9h-17.6v-22.3h17.1C1566.7,131.3,1568,154.1,1556,153.9z"/>
		</g>
	</g>
	<g>
		
			<linearGradient id="SVGID_50_" gradientUnits="userSpaceOnUse" x1="1372.7144" y1="188.3756" x2="1391.8652" y2="231.9211" gradientTransform="matrix(1 0 0 -1 0 800)">
			<stop  offset="0" style="stop-color:#210C6D"/>
			<stop  offset="0.9368" style="stop-color:#210C6D;stop-opacity:0"/>
		</linearGradient>
		<polygon class="st58" points="1380.5,585.4 1358.1,597.4 1377.4,608.3 1400.5,595.9 		"/>
		
			<linearGradient id="SVGID_51_" gradientUnits="userSpaceOnUse" x1="1313.5502" y1="214.3955" x2="1332.701" y2="257.9409" gradientTransform="matrix(1 0 0 -1 0 800)">
			<stop  offset="0" style="stop-color:#210C6D"/>
			<stop  offset="0.9368" style="stop-color:#210C6D;stop-opacity:0"/>
		</linearGradient>
		<polygon class="st59" points="1323.3,554.8 1301,566.8 1320.3,577.7 1343.3,565.3 		"/>
		
			<linearGradient id="SVGID_52_" gradientUnits="userSpaceOnUse" x1="1343.5571" y1="201.1988" x2="1362.708" y2="244.7442" gradientTransform="matrix(1 0 0 -1 0 800)">
			<stop  offset="0" style="stop-color:#210C6D"/>
			<stop  offset="0.9368" style="stop-color:#210C6D;stop-opacity:0"/>
		</linearGradient>
		<polygon class="st60" points="1352.2,570.4 1329.9,582.4 1349.2,593.2 1372.3,580.9 		"/>
		
			<linearGradient id="SVGID_53_" gradientUnits="userSpaceOnUse" x1="1334.0015" y1="232.0261" x2="1326.4521" y2="257.0106" gradientTransform="matrix(1 0 0 -1 0 800)">
			<stop  offset="0" style="stop-color:#26FDE4;stop-opacity:0"/>
			<stop  offset="0.3486" style="stop-color:#26FDE4;stop-opacity:0.5"/>
			<stop  offset="1" style="stop-color:#26C3BF;stop-opacity:0.9"/>
		</linearGradient>
		<polygon class="st61" points="1320.7,581.6 1320.7,537.1 1339.1,527.2 1339.1,571.7 		"/>
		
			<linearGradient id="SVGID_54_" gradientUnits="userSpaceOnUse" x1="1306.3187" y1="235.3442" x2="1321.7737" y2="261.9268" gradientTransform="matrix(1 0 0 -1 0 800)">
			<stop  offset="0" style="stop-color:#26FDE4;stop-opacity:0"/>
			<stop  offset="0.3315" style="stop-color:#26FDE4;stop-opacity:0.4"/>
			<stop  offset="0.6886" style="stop-color:#34FDE4;stop-opacity:0.8069"/>
			<stop  offset="1" style="stop-color:#37FDE4;stop-opacity:0.9"/>
		</linearGradient>
		<polygon class="st62" points="1305.2,528.4 1305.2,569.4 1320.7,578.1 1320.7,537.1 		"/>
		<polygon class="st10" points="1323.1,518.8 1305.2,528.4 1320.7,537.1 1339.1,527.2 		"/>
		<g>
			<g>
				
					<linearGradient id="SVGID_55_" gradientUnits="userSpaceOnUse" x1="1306.4838" y1="281.7375" x2="1337.8313" y2="281.7375" gradientTransform="matrix(1 0 0 -1 0 800)">
					<stop  offset="0" style="stop-color:#26FDE4;stop-opacity:0.1"/>
					<stop  offset="1" style="stop-color:#FFFFFF;stop-opacity:0.9"/>
				</linearGradient>
				<path class="st63" d="M1320.8,526.9c-0.1,0-0.1,0-0.2,0l-14-7.9c-0.1-0.1-0.2-0.2-0.2-0.3s0.1-0.2,0.2-0.3l16.2-8.7
					c0.1-0.1,0.2-0.1,0.3,0l14.5,7.6c0.1,0.1,0.2,0.2,0.2,0.3s-0.1,0.2-0.2,0.3l-16.7,9C1320.9,526.9,1320.9,526.9,1320.8,526.9z
					 M1307.5,518.7l13.3,7.5l16-8.6l-13.8-7.3L1307.5,518.7z"/>
			</g>
			<g>
				
					<linearGradient id="SVGID_56_" gradientUnits="userSpaceOnUse" x1="1306.4838" y1="286.4375" x2="1337.8313" y2="286.4375" gradientTransform="matrix(1 0 0 -1 0 800)">
					<stop  offset="0" style="stop-color:#26FDE4;stop-opacity:0.1"/>
					<stop  offset="1" style="stop-color:#FFFFFF;stop-opacity:0.9"/>
				</linearGradient>
				<path class="st64" d="M1320.8,522.2c-0.1,0-0.1,0-0.2,0l-14-7.9c-0.1-0.1-0.2-0.2-0.2-0.3s0.1-0.2,0.2-0.3l16.2-8.7
					c0.1-0.1,0.2-0.1,0.3,0l14.5,7.6c0.1,0.1,0.2,0.2,0.2,0.3s-0.1,0.2-0.2,0.3l-16.7,9C1320.9,522.2,1320.9,522.2,1320.8,522.2z
					 M1307.5,514l13.3,7.5l16-8.6l-13.8-7.3L1307.5,514z"/>
			</g>
			<g>
				
					<linearGradient id="SVGID_57_" gradientUnits="userSpaceOnUse" x1="1306.4838" y1="291.1375" x2="1337.8313" y2="291.1375" gradientTransform="matrix(1 0 0 -1 0 800)">
					<stop  offset="0" style="stop-color:#26FDE4;stop-opacity:0.1"/>
					<stop  offset="1" style="stop-color:#FFFFFF;stop-opacity:0.9"/>
				</linearGradient>
				<path class="st65" d="M1320.8,517.5c-0.1,0-0.1,0-0.2,0l-14-7.9c-0.1-0.1-0.2-0.2-0.2-0.3s0.1-0.2,0.2-0.3l16.2-8.7
					c0.1-0.1,0.2-0.1,0.3,0l14.5,7.6c0.1,0.1,0.2,0.2,0.2,0.3s-0.1,0.2-0.2,0.3l-16.7,9C1320.9,517.5,1320.9,517.5,1320.8,517.5z
					 M1307.5,509.3l13.3,7.5l16-8.6L1323,501L1307.5,509.3z"/>
			</g>
		</g>
		
			<linearGradient id="SVGID_58_" gradientUnits="userSpaceOnUse" x1="1361.719" y1="258.9192" x2="1355.3434" y2="280.0196" gradientTransform="matrix(1 0 0 -1 0 800)">
			<stop  offset="0" style="stop-color:#FF99BE;stop-opacity:0"/>
			<stop  offset="1" style="stop-color:#FF99BE;stop-opacity:0.9"/>
		</linearGradient>
		<polygon class="st66" points="1349,553 1349,516.1 1367.5,506.2 1367.5,543.1 		"/>
		
			<linearGradient id="SVGID_59_" gradientUnits="userSpaceOnUse" x1="1366.2512" y1="216.9698" x2="1351.5405" y2="265.6554" gradientTransform="matrix(1 0 0 -1 0 800)">
			<stop  offset="0" style="stop-color:#FF99BE;stop-opacity:0"/>
			<stop  offset="1" style="stop-color:#FF99BE;stop-opacity:0.9"/>
		</linearGradient>
		<polygon class="st67" points="1349,606.9 1349,516.1 1367.5,506.2 1367.5,597 		"/>
		
			<linearGradient id="SVGID_60_" gradientUnits="userSpaceOnUse" x1="1328.1963" y1="225.3477" x2="1358.6053" y2="277.6511" gradientTransform="matrix(1 0 0 -1 0 800)">
			<stop  offset="0" style="stop-color:#FF99BE;stop-opacity:0"/>
			<stop  offset="0.4782" style="stop-color:#ECA2C1"/>
			<stop  offset="1" style="stop-color:#FF99BE"/>
		</linearGradient>
		<polygon class="st68" points="1333.5,507.4 1333.5,588.3 1349,597 1349,516.1 		"/>
		<polygon class="st69" points="1351.4,497.8 1333.5,507.4 1349,516.1 1367.5,506.2 		"/>
		
			<linearGradient id="SVGID_61_" gradientUnits="userSpaceOnUse" x1="1391.1562" y1="206.9103" x2="1383.6071" y2="231.8948" gradientTransform="matrix(1 0 0 -1 0 800)">
			<stop  offset="0" style="stop-color:#26FDE4;stop-opacity:0"/>
			<stop  offset="0.3486" style="stop-color:#26FDE4;stop-opacity:0.5"/>
			<stop  offset="1" style="stop-color:#26C3BF;stop-opacity:0.9"/>
		</linearGradient>
		<polygon class="st70" points="1377.8,606.7 1377.8,562.2 1396.3,552.3 1396.3,596.8 		"/>
		
			<linearGradient id="SVGID_62_" gradientUnits="userSpaceOnUse" x1="1363.4249" y1="210.2548" x2="1378.8798" y2="236.8372" gradientTransform="matrix(1 0 0 -1 0 800)">
			<stop  offset="0" style="stop-color:#26FDE4;stop-opacity:0"/>
			<stop  offset="0.3315" style="stop-color:#26FDE4;stop-opacity:0.4"/>
			<stop  offset="0.6886" style="stop-color:#34FDE4;stop-opacity:0.8069"/>
			<stop  offset="1" style="stop-color:#37FDE4;stop-opacity:0.9"/>
		</linearGradient>
		<polygon class="st71" points="1362.3,553.5 1362.3,594.5 1377.8,603.2 1377.8,562.2 		"/>
		<polygon class="st10" points="1380.2,543.9 1362.3,553.5 1377.8,562.2 1396.3,552.3 		"/>
		<g>
			<g>
				
					<linearGradient id="SVGID_63_" gradientUnits="userSpaceOnUse" x1="1334.7883" y1="302.7375" x2="1366.136" y2="302.7375" gradientTransform="matrix(1 0 0 -1 0 800)">
					<stop  offset="0" style="stop-color:#FFFFFF;stop-opacity:0.1"/>
					<stop  offset="1" style="stop-color:#FFFFFF;stop-opacity:0.9"/>
				</linearGradient>
				<path class="st72" d="M1349.1,505.9c-0.1,0-0.1,0-0.2,0l-14-7.9c-0.1-0.1-0.2-0.2-0.2-0.3c0-0.1,0.1-0.2,0.2-0.3l16.2-8.7
					c0.1-0.1,0.2-0.1,0.3,0l14.5,7.6c0.1,0.1,0.2,0.2,0.2,0.3c0,0.1-0.1,0.2-0.2,0.3l-16.7,9
					C1349.2,505.9,1349.2,505.9,1349.1,505.9z M1335.8,497.7l13.3,7.5l16-8.6l-13.8-7.3L1335.8,497.7z"/>
			</g>
			<g>
				
					<linearGradient id="SVGID_64_" gradientUnits="userSpaceOnUse" x1="1334.7883" y1="307.5375" x2="1366.136" y2="307.5375" gradientTransform="matrix(1 0 0 -1 0 800)">
					<stop  offset="0" style="stop-color:#FFFFFF;stop-opacity:0.1"/>
					<stop  offset="1" style="stop-color:#FFFFFF;stop-opacity:0.9"/>
				</linearGradient>
				<path class="st73" d="M1349.1,501.1c-0.1,0-0.1,0-0.2,0l-14-7.9c-0.1-0.1-0.2-0.2-0.2-0.3c0-0.1,0.1-0.2,0.2-0.3l16.2-8.7
					c0.1-0.1,0.2-0.1,0.3,0l14.5,7.6c0.1,0.1,0.2,0.2,0.2,0.3c0,0.1-0.1,0.2-0.2,0.3l-16.7,9
					C1349.2,501.1,1349.2,501.1,1349.1,501.1z M1335.8,493l13.3,7.5l16-8.6l-13.8-7.3L1335.8,493z"/>
			</g>
			<g>
				
					<linearGradient id="SVGID_65_" gradientUnits="userSpaceOnUse" x1="1334.7883" y1="312.2375" x2="1366.136" y2="312.2375" gradientTransform="matrix(1 0 0 -1 0 800)">
					<stop  offset="0" style="stop-color:#FFFFFF;stop-opacity:0.1"/>
					<stop  offset="1" style="stop-color:#FFFFFF;stop-opacity:0.9"/>
				</linearGradient>
				<path class="st74" d="M1349.1,496.4c-0.1,0-0.1,0-0.2,0l-14-7.9c-0.1-0.1-0.2-0.2-0.2-0.3c0-0.1,0.1-0.2,0.2-0.3l16.2-8.7
					c0.1-0.1,0.2-0.1,0.3,0l14.5,7.6c0.1,0.1,0.2,0.2,0.2,0.3c0,0.1-0.1,0.2-0.2,0.3l-16.7,9
					C1349.2,496.4,1349.2,496.4,1349.1,496.4z M1335.8,488.2l13.3,7.5l16-8.6l-13.8-7.3L1335.8,488.2z"/>
			</g>
		</g>
		<g>
			<g>
				
					<linearGradient id="SVGID_66_" gradientUnits="userSpaceOnUse" x1="1362.9663" y1="255.9375" x2="1394.3138" y2="255.9375" gradientTransform="matrix(1 0 0 -1 0 800)">
					<stop  offset="0" style="stop-color:#26FDE4;stop-opacity:0.1"/>
					<stop  offset="1" style="stop-color:#FFFFFF;stop-opacity:0.9"/>
				</linearGradient>
				<path class="st75" d="M1377.3,552.7c-0.1,0-0.1,0-0.2,0l-14-7.9c-0.1-0.1-0.2-0.2-0.2-0.3s0.1-0.2,0.2-0.3l16.2-8.7
					c0.1-0.1,0.2-0.1,0.3,0l14.5,7.6c0.1,0.1,0.2,0.2,0.2,0.3s-0.1,0.2-0.2,0.3l-16.7,9C1377.4,552.7,1377.3,552.7,1377.3,552.7z
					 M1364,544.5l13.3,7.5l16-8.6l-13.8-7.3L1364,544.5z"/>
			</g>
			<g>
				
					<linearGradient id="SVGID_67_" gradientUnits="userSpaceOnUse" x1="1362.9663" y1="260.6375" x2="1394.3138" y2="260.6375" gradientTransform="matrix(1 0 0 -1 0 800)">
					<stop  offset="0" style="stop-color:#26FDE4;stop-opacity:0.1"/>
					<stop  offset="1" style="stop-color:#FFFFFF;stop-opacity:0.9"/>
				</linearGradient>
				<path class="st76" d="M1377.3,548c-0.1,0-0.1,0-0.2,0l-14-7.9c-0.1-0.1-0.2-0.2-0.2-0.3s0.1-0.2,0.2-0.3l16.2-8.7
					c0.1-0.1,0.2-0.1,0.3,0l14.5,7.6c0.1,0.1,0.2,0.2,0.2,0.3s-0.1,0.2-0.2,0.3l-16.7,9C1377.4,548,1377.3,548,1377.3,548z
					 M1364,539.8l13.3,7.5l16-8.6l-13.8-7.3L1364,539.8z"/>
			</g>
			<g>
				
					<linearGradient id="SVGID_68_" gradientUnits="userSpaceOnUse" x1="1362.9663" y1="265.3375" x2="1394.3138" y2="265.3375" gradientTransform="matrix(1 0 0 -1 0 800)">
					<stop  offset="0" style="stop-color:#26FDE4;stop-opacity:0.1"/>
					<stop  offset="1" style="stop-color:#FFFFFF;stop-opacity:0.9"/>
				</linearGradient>
				<path class="st77" d="M1377.3,543.3c-0.1,0-0.1,0-0.2,0l-14-7.9c-0.1-0.1-0.2-0.2-0.2-0.3s0.1-0.2,0.2-0.3l16.2-8.7
					c0.1-0.1,0.2-0.1,0.3,0l14.5,7.6c0.1,0.1,0.2,0.2,0.2,0.3s-0.1,0.2-0.2,0.3l-16.7,9C1377.4,543.3,1377.3,543.3,1377.3,543.3z
					 M1364,535.1l13.3,7.5l16-8.6l-13.8-7.3L1364,535.1z"/>
			</g>
		</g>
	</g>
	<path class="st78" d="M1587.1,346.6c-0.6,0.4,0.9,1.9,0.9,1.9c-0.1,0.1-0.3,0.7-0.2,1c0.1,0.9-0.3,2.2,3.2,3.3
		c0.4,0.1,2.5,0.7,2.4,1.1c0,0.5,1.1-2.5,1.1-2.5s-0.4,0.4-1.8-0.3c-1-0.5-1.9-1.9-2.5-2.3c-0.4-0.3-1-0.4-1.4-0.4
		C1588.5,348.4,1587.4,346.5,1587.1,346.6z"/>
	<path class="st78" d="M1614.5,339.6c0,0,0.9-2-0.4-3c-1.6-1.2,2.3-3.8,2.3-3.8h2.3c0,0-0.2,3,1.4,3.4s-2.1,3.4-2.1,3.4
		S1615.8,340.2,1614.5,339.6z"/>
	<path class="st79" d="M1608.4,325.3c0,0,0.1,3.8-0.4,6.1c-0.1,0.4,0.3,0.7,0.6,0.7h0.3c0,0,1.1,4.7,2.6,5s3.9-0.9,4.6-2.8
		c0.6-1.9-3.5-8.2-3.5-8.2S1609.9,323.9,1608.4,325.3z"/>
	<path class="st80" d="M1611.3,413.8c0,0-2.4,0.7-3.9,0.3s-3-0.6-3.7,0.6c-0.7,1.1-0.3,3.5,2.4,3.9s3,0.2,4.4,0.6s2.6,1.8,4.9,1.9
		c2.2,0.2,2.6-0.8,2.6-0.8v-2.8L1611.3,413.8z"/>
	<path class="st80" d="M1627.1,410.8c0.4,0.7,0.2,2.8,0.1,3.6c0,0.2-0.1,0.3-0.2,0.4c-0.5,0.4-1.7,1.1-3.2,0.5
		c-1.8-0.8-1.9-2.4-2.6-3.1c-0.6-0.6-1.5-0.9-3.2-1.7c-1.7-0.8-3.5-2.8-1.8-4.8c1.2-1,2.8-0.2,3.3,0.6s2.3,1.5,2.7,1.4
		S1626.4,409.5,1627.1,410.8z"/>
	
		<linearGradient id="SVGID_69_" gradientUnits="userSpaceOnUse" x1="1621.1909" y1="469.7249" x2="1627.4187" y2="453.3479" gradientTransform="matrix(1 0 0 -1 0 800)">
		<stop  offset="0.2075" style="stop-color:#52FFEB"/>
		<stop  offset="0.7506" style="stop-color:#F69EAF"/>
	</linearGradient>
	<path class="st81" d="M1630.8,346.3c-0.5-1.9-1.9-8.6-5.7-11.8c-1.8-1.4-1.5,2.6-1.4,6.1c0,1.6,2.8,5.6,2.8,5.6
		c-0.6,0.8-2.1,0.2-2.1,0.2c-0.7,1.3,0.3,3.5,0.3,3.5s2.4,0.5,3.9-0.5C1629.9,348.3,1631.3,348.2,1630.8,346.3z"/>
	<path class="st78" d="M1609.1,325.4c0,0,0.4,9.1,2.5,11c0.5,0.4,0.9,0.7,1.1,0.6s2-0.4,2.6-1.3c0.6-0.6,1.1-1.7,1.1-1.7l-3-7.2
		L1609.1,325.4z"/>
	<path class="st82" d="M1612,330.9c0,0,0.7,5.2,2.1,5.7c1.9-1.1,2.2-2.4,2.2-2.4s0.8,4,1.8,4.4s2.3-1.5,2.3-1.5l-1-1.3
		c0,0-0.8-1.1-0.7-2.5C1618.7,331.8,1612,330.9,1612,330.9z"/>
	<path class="st83" d="M1606.9,321.7c0,0,3.4-1.9,7.3-1.7c3.9,0.2,7.3,3.6,6.9,6.4s-1.1,7.6-4.1,8c-2.8,0.4-4.6-2.8-5.4-4.5
		c-0.6-1.3-1.1-4-3.3-4.7C1605.9,324.7,1606,322.8,1606.9,321.7z"/>
	<path class="st78" d="M1610.9,328.8c0,0,0.7-0.9,1.3-0.2c0.7,0.8,0.2,2-0.8,2.8s-0.5-0.8-0.5-0.8V328.8z"/>
	<path class="st82" d="M1587.8,349.6c0,0,1.2,1.9,4.1,2.6c3.1,0.8-0.6,0.7-0.6,0.7S1587.5,352.4,1587.8,349.6z"/>
	<path class="st84" d="M1630.1,343.4c0,0,0.5,3.4-1.2,4.2c-1.6,0.8-2.9,1.4-4,1.1c-1.1-0.2,0.9,1.3,0.9,1.3s2.5-0.2,3.7-1.4
		C1630.8,347.6,1631.5,348.4,1630.1,343.4z"/>
	<path class="st85" d="M1603.4,416.4c0,0,1.8,1.8,3.4,1.6s3.9,0.2,5.5,1.3c1.6,1,4.4,2.3,5.7,0.3c0,0,0.1,0.5,0,0.7
		c-0.2,0.6-2.3,1.8-5.7-0.2c-1.2-0.7-1.8-1-3.1-1.1S1604,419.3,1603.4,416.4z"/>
	<path class="st85" d="M1618,409.5c0,0,1.8,1.2,2.8,1.7c1,0.4,1.7,1.7,2,2.7s3,1.6,4.5,0c0,0,0.2,0.7-0.6,1.1s-2.4,1.3-4.3-0.9
		c-0.8-1-0.9-2.1-2.4-2.7s-2.2-1.1-2.2-1.1L1618,409.5z"/>
	<path class="st86" d="M1627.5,410.7c0,0-1.4-15.8-1.9-18.9s0.4-12.5,1-14s1.5-10.2,0.7-12.4c-0.9-2.2-18.8,6.8-18.8,6.8
		s0.1,16.9,0.9,20s2.5,17.7,2.2,20.1c-0.3,2.5-0.3,2.5-0.3,2.5s1.8,4.9,6.8,2.9c0,0,0.6-4.7,0-8.7s-1.6-12.4-1.7-13.4
		c0-1,0.2-9.8,1.7-13.6c0.7-1.7,1-3,1.4-3.5s-1.6,7,0.2,16.4c1,5.2,1.3,10.6,1.4,12.1S1620.4,414.5,1627.5,410.7z"/>
	
		<linearGradient id="SVGID_70_" gradientUnits="userSpaceOnUse" x1="1601.2256" y1="468.7301" x2="1617.7623" y2="437.5832" gradientTransform="matrix(1 0 0 -1 0 800)">
		<stop  offset="0.2075" style="stop-color:#52FFEB"/>
		<stop  offset="0.7506" style="stop-color:#F69EAF"/>
	</linearGradient>
	<path class="st87" d="M1605.7,347c0,0,1-5.8,8.8-7.4s4.8-3.9,4.8-3.9s2.5-2.2,5.2-1.5c0.7,0.2,1.1,0.8,1.3,1.4
		c0.2,0.7,0.2,1.5,0.2,1.5s-0.1,14.7,0.7,18.5c0.8,3.8,1.1,9.2,0.5,9.7s-6,9.2-18.8,6.8c0,0,1-9.8,1-11.5c0,0-0.1-3.5-0.3-4.6
		c0,0-3.1,4-4,4.7c-1,0.7-13.8-5.1-14-6.5s1.2-2.9,2-3.4c0.7-0.5,7.1,3.4,8.9,3.9C1602.4,354.7,1605.4,348.7,1605.7,347z"/>
	<path class="st84" d="M1609.1,356c0,0,3.2,2.2,3.1,4.4s-2.9,10.6,1.8,12c0,0-3.5,0.2-5.5-0.4c-1.1-0.4-0.4-5.5,0-6.7
		S1609.5,356.9,1609.1,356z"/>
	<path class="st84" d="M1591.4,352.9c0,0,11.2,6.4,12.8,5.6c1.6-0.9,3.6-4.1,4.3-4.5c0.7-0.4,3.3,3.9,3.5,5.2
		c0.2,1.3-2.8-3.2-2.8-3.2s-2.9,4.2-4,4.7s-13.4-4.8-14-6.5C1591.1,354.2,1591.2,353.3,1591.4,352.9z"/>
	<path class="st88" d="M1608.4,373.5c0,0,2.2,3.8,2,9.3s0.6,13.2,1.9,15.3c1.2,2.1,1.1,12.5,1.1,12.5s-1,4.8-0.6,6.4
		c0,0-1.5-1.5-1.7-2.4s0.6-3.5,0.1-7.3c-0.5-3.9-1.3-12.1-1.6-13.7c-0.3-1.6-0.7-3.1-0.9-8.7
		C1608.5,379.2,1608.4,373.5,1608.4,373.5z"/>
	<path class="st88" d="M1621.1,376.3c0.1-0.7-1.7,2-1.7,2s-0.8,7-0.5,10.2c0.1,1.6,0.5,5.9,1,7.9s1.1,10.5,1.1,10.8
		s-0.6,4.3,2.5,4.6c0,0-0.9-6.2-0.9-7.6s-1.1-10.9-1.4-12C1620.8,391.4,1620,384.4,1621.1,376.3z"/>
</g>
<g>
	<g>
		
			<linearGradient id="SVGID_71_" gradientUnits="userSpaceOnUse" x1="1393.5208" y1="632.151" x2="1249.5531" y2="629.7779" gradientTransform="matrix(1 0 0 -1 0 800)">
			<stop  offset="0" style="stop-color:#5961E0"/>
			<stop  offset="0.1458" style="stop-color:#5961E0"/>
			<stop  offset="0.3509" style="stop-color:#7077EE"/>
			<stop  offset="0.5017" style="stop-color:#9FA5F1"/>
			<stop  offset="0.5419" style="stop-color:#9FA5F1"/>
			<stop  offset="0.6661" style="stop-color:#737AF0"/>
			<stop  offset="1" style="stop-color:#888FFD"/>
		</linearGradient>
		<path class="st89" d="M1252.6,166.6l65.5-35.6c0,0,6.3-3.3,12.7,0s58.8,32.3,58.8,32.3s3.9,1.8,3.9,3.3c0,2.7-1.5,3.3-4.5,4.8
			s-64.9,35.3-64.9,35.3s-3.6,2.2-7.2,1.8c-3-0.3-6.6-2.7-6.6-2.7l-57-31.7c0,0-3.6-1.8-3.6-3.9S1252.6,166.6,1252.6,166.6z"/>
		
			<linearGradient id="SVGID_72_" gradientUnits="userSpaceOnUse" x1="1393.6744" y1="640.6174" x2="1249.4608" y2="638.2403" gradientTransform="matrix(1 0 0 -1 0 800)">
			<stop  offset="0" style="stop-color:#5961E0"/>
			<stop  offset="0.1458" style="stop-color:#5961E0"/>
			<stop  offset="0.3509" style="stop-color:#7077EE"/>
			<stop  offset="0.5017" style="stop-color:#9FA5F1"/>
			<stop  offset="0.5419" style="stop-color:#9FA5F1"/>
			<stop  offset="0.6661" style="stop-color:#737AF0"/>
			<stop  offset="1" style="stop-color:#888FFD"/>
		</linearGradient>
		<polygon class="st90" points="1249.6,152.4 1249.6,170.2 1318.6,208.5 1393.5,167.6 1393.5,148.8 1327.1,112.6 		"/>
	</g>
	
		<linearGradient id="SVGID_73_" gradientUnits="userSpaceOnUse" x1="1249.7001" y1="648.759" x2="1393.6469" y2="648.759" gradientTransform="matrix(1 0 0 -1 0 800)">
		<stop  offset="0" style="stop-color:#5961E0"/>
		<stop  offset="1" style="stop-color:#888FFD"/>
	</linearGradient>
	<path class="st91" d="M1252.6,148.8l65.5-35.6c0,0,6.3-3.3,12.7,0s58.8,32.3,58.8,32.3s3.9,1.8,3.9,3.3c0,2.7-1.5,3.3-4.5,4.8
		s-64.9,35.3-64.9,35.3s-3.6,2.2-7.2,1.8c-3-0.3-6.6-2.7-6.6-2.7l-57-31.7c0,0-3.6-1.8-3.6-3.9S1252.6,148.8,1252.6,148.8z"/>
	<path class="st5" d="M1343.1,190.3l-8.4,4.6c-0.7,0.4-0.9,0-1-0.6l-0.1-1.9c0-0.6,0.2-1.3,0.9-1.7l8.5-4.7c0.6-0.4,0.9,0,0.9,0.5
		v2.2C1344,189.6,1343.8,190,1343.1,190.3z"/>
	<path class="st5" d="M1380.3,168.9l-8.4,4.6c-0.7,0.4-0.9,0-1-0.6l-0.1-1.9c0-0.6,0.2-1.3,0.9-1.7l8.5-4.7c0.6-0.4,0.9,0,0.9,0.5
		v2.2C1381.3,168.1,1381,168.5,1380.3,168.9z"/>
	
		<linearGradient id="SVGID_74_" gradientUnits="userSpaceOnUse" x1="1345.9314" y1="612.5789" x2="1357.9436" y2="584.3305" gradientTransform="matrix(1 0 0 -1 0 800)">
		<stop  offset="0" style="stop-color:#FFFFFF"/>
		<stop  offset="0.4939" style="stop-color:#71EEFF;stop-opacity:0.2"/>
		<stop  offset="0.6867" style="stop-color:#494EC2;stop-opacity:0.1169"/>
		<stop  offset="0.9627" style="stop-color:#390FAA;stop-opacity:0.1"/>
	</linearGradient>
	<polygon class="st92" points="1333.7,193.2 1344,187.6 1367.5,203.6 1356.7,209 	"/>
	
		<linearGradient id="SVGID_75_" gradientUnits="userSpaceOnUse" x1="1383.1329" y1="633.9254" x2="1395.1451" y2="605.6769" gradientTransform="matrix(1 0 0 -1 0 800)">
		<stop  offset="0" style="stop-color:#FFFFFF"/>
		<stop  offset="0.4939" style="stop-color:#71EEFF;stop-opacity:0.2"/>
		<stop  offset="0.6867" style="stop-color:#494EC2;stop-opacity:0.1169"/>
		<stop  offset="0.9627" style="stop-color:#390FAA;stop-opacity:0.1"/>
	</linearGradient>
	<polygon class="st93" points="1370.9,171.9 1381.3,166.3 1404.7,182.2 1393.9,187.6 	"/>
	<path class="st5" d="M1297.8,192.2l8.4,4.6c0.7,0.4,0.9,0,1-0.6l0.1-1.9c0-0.6-0.2-1.3-0.9-1.7l-8.5-4.7c-0.6-0.4-0.9,0-0.9,0.5
		v2.2C1296.9,191.5,1297.1,191.8,1297.8,192.2z"/>
	<path class="st5" d="M1260.6,170.7l8.4,4.6c0.7,0.4,0.9,0,1-0.6l0.1-1.9c0-0.6-0.2-1.3-0.9-1.7l-8.5-4.7c-0.6-0.4-0.9,0-0.9,0.5
		v2.2C1259.7,170,1259.9,170.3,1260.6,170.7z"/>
	
		<linearGradient id="SVGID_76_" gradientUnits="userSpaceOnUse" x1="2653.6814" y1="610.7144" x2="2665.6936" y2="582.466" gradientTransform="matrix(-1 0 0 -1 3948.6438 800)">
		<stop  offset="0" style="stop-color:#FFFFFF"/>
		<stop  offset="0.4939" style="stop-color:#71EEFF;stop-opacity:0.2"/>
		<stop  offset="0.6867" style="stop-color:#494EC2;stop-opacity:0.1169"/>
		<stop  offset="0.9627" style="stop-color:#390FAA;stop-opacity:0.1"/>
	</linearGradient>
	<polygon class="st94" points="1307.2,195.1 1296.9,189.5 1273.4,205.4 1284.3,210.9 	"/>
	
		<linearGradient id="SVGID_77_" gradientUnits="userSpaceOnUse" x1="2690.8828" y1="632.0609" x2="2702.8953" y2="603.8124" gradientTransform="matrix(-1 0 0 -1 3948.6438 800)">
		<stop  offset="0" style="stop-color:#FFFFFF"/>
		<stop  offset="0.4939" style="stop-color:#71EEFF;stop-opacity:0.2"/>
		<stop  offset="0.6867" style="stop-color:#494EC2;stop-opacity:0.1169"/>
		<stop  offset="0.9627" style="stop-color:#390FAA;stop-opacity:0.1"/>
	</linearGradient>
	<polygon class="st95" points="1270,173.7 1259.7,168.2 1236.2,184.1 1247,189.5 	"/>
	<g>
		<polygon class="st10" points="1323.1,135.3 1288.5,153.9 1318.4,170.7 1354,151.5 		"/>
		
			<linearGradient id="SVGID_78_" gradientUnits="userSpaceOnUse" x1="1338.3792" y1="640.488" x2="1334.3572" y2="653.7989" gradientTransform="matrix(1 0 0 -1 0 800)">
			<stop  offset="0" style="stop-color:#26FDE4;stop-opacity:0.5"/>
			<stop  offset="1" style="stop-color:#FFFFFF;stop-opacity:0.9"/>
		</linearGradient>
		<polygon class="st96" points="1318.4,170.7 1318.4,152.7 1354,133.9 1354,151.5 		"/>
		
			<linearGradient id="SVGID_79_" gradientUnits="userSpaceOnUse" x1="1308.0754" y1="659.6441" x2="1303.2875" y2="669.0286" gradientTransform="matrix(1 0 0 -1 0 800)">
			<stop  offset="0" style="stop-color:#26FDE4;stop-opacity:0.5"/>
			<stop  offset="1" style="stop-color:#26FDE4;stop-opacity:0.9"/>
		</linearGradient>
		<polygon class="st97" points="1288.5,153.8 1288.5,135.8 1322.9,117.6 1322.9,135.3 		"/>
		
			<linearGradient id="SVGID_80_" gradientUnits="userSpaceOnUse" x1="1337.4574" y1="662.362" x2="1340.9048" y2="673.0872" gradientTransform="matrix(1 0 0 -1 0 800)">
			<stop  offset="0" style="stop-color:#26FDE4;stop-opacity:0.5"/>
			<stop  offset="1" style="stop-color:#26FDE4;stop-opacity:0.9"/>
		</linearGradient>
		<polygon class="st98" points="1322.9,117.6 1322.9,135.3 1354,151.5 1354,133.9 		"/>
		
			<linearGradient id="SVGID_81_" gradientUnits="userSpaceOnUse" x1="1300.4608" y1="641.6086" x2="1307.4056" y2="653.5538" gradientTransform="matrix(1 0 0 -1 0 800)">
			<stop  offset="0" style="stop-color:#26FDE4;stop-opacity:0.5"/>
			<stop  offset="1" style="stop-color:#FFFFFF;stop-opacity:0.9"/>
		</linearGradient>
		<polygon class="st99" points="1288.5,135.8 1288.5,153.9 1318.4,170.7 1318.4,152.7 		"/>
		<g>
			<path class="st10" d="M1323,135.8c-0.1,0-0.2-0.1-0.2-0.2v-17.7c0-0.1,0.1-0.2,0.2-0.2s0.2,0.1,0.2,0.2v17.7
				C1323.2,135.7,1323.1,135.8,1323,135.8z"/>
		</g>
		<g class="st15">
			<path class="st5" d="M1318.4,170.6c-0.1,0-0.2-0.1-0.2-0.2v-17.7c0-0.1,0.1-0.2,0.2-0.2s0.2,0.1,0.2,0.2v17.7
				C1318.6,170.4,1318.5,170.6,1318.4,170.6z"/>
		</g>
	</g>
	<g>
		
			<linearGradient id="SVGID_82_" gradientUnits="userSpaceOnUse" x1="1320.603" y1="540.7" x2="1320.603" y2="680.251" gradientTransform="matrix(1 0 0 -1 0 800)">
			<stop  offset="0" style="stop-color:#210C6D"/>
			<stop  offset="0.7828" style="stop-color:#210C6D;stop-opacity:0"/>
		</linearGradient>
		<path class="st100" d="M1314.2,259.3c-2.9,0-6.1-0.6-9.3-2.4c-9.2-5.2-103.3-57.3-104.2-57.9c-0.6-0.3-5.9-3.4-6.1-7.5
			c-0.1-2.1,1-4,3.3-5.6l0.1-0.1l116.9-63.7l0,0c0.4-0.2,10.8-4.7,19.2-0.7c7.9,3.8,103.3,56,107.3,58.2c0.2,0.1,5.5,2.9,5.2,7.1
			c-0.3,4-4.6,6.3-7.8,7.9l-0.3,0.1c-3.1,1.6-111.9,61-113,61.6C1325.3,256.5,1320.4,259.3,1314.2,259.3z M1199.3,188
			c-1.5,1.1-2.3,2.2-2.2,3.4c0.1,2.4,3.5,4.8,4.8,5.5c0.9,0.5,95,52.6,104.2,57.9c8.6,4.9,18.1-0.5,18.2-0.6
			c4.5-2.5,110-60.1,113.1-61.7l0.3-0.1c2.8-1.4,6.3-3.2,6.4-5.9c0.1-2.1-2.8-4.2-3.9-4.7c-1-0.6-99.4-54.4-107.2-58.2
			c-7.1-3.4-16.3,0.4-17,0.7L1199.3,188z"/>
	</g>
	<g>
		
			<linearGradient id="SVGID_83_" gradientUnits="userSpaceOnUse" x1="1194.5938" y1="631.1755" x2="1446.6123" y2="631.1755" gradientTransform="matrix(1 0 0 -1 0 800)">
			<stop  offset="0" style="stop-color:#5961E0"/>
			<stop  offset="1" style="stop-color:#888FFD"/>
		</linearGradient>
		<path class="st101" d="M1314.2,238.6c-2.9,0-6.1-0.6-9.3-2.4c-9.2-5.2-103.3-57.3-104.2-57.9c-0.6-0.3-5.9-3.4-6.1-7.5
			c-0.1-2.1,1-4,3.3-5.6l0.1-0.1l116.9-63.7l0,0c0.4-0.2,10.8-4.7,19.2-0.7c7.9,3.8,103.3,56,107.3,58.2c0.2,0.1,5.5,2.9,5.2,7.1
			c-0.3,4-4.6,6.3-7.8,7.9l-0.3,0.1c-3.1,1.6-111.9,61-113,61.6C1325.3,235.8,1320.4,238.6,1314.2,238.6z M1199.3,167.3
			c-1.5,1.1-2.3,2.2-2.2,3.4c0.1,2.4,3.5,4.8,4.8,5.5c0.9,0.5,95,52.6,104.2,57.9c8.6,4.9,18.1-0.5,18.2-0.6
			c4.5-2.5,110-60.1,113.1-61.7l0.3-0.1c2.8-1.4,6.3-3.2,6.4-5.9c0.1-2.1-2.8-4.1-3.9-4.7c-1-0.6-99.4-54.4-107.2-58.2
			c-7.1-3.4-16.3,0.4-17,0.7L1199.3,167.3z"/>
	</g>
	<g>
		
			<linearGradient id="SVGID_84_" gradientUnits="userSpaceOnUse" x1="1418.5922" y1="670.996" x2="1430.6581" y2="698.4315" gradientTransform="matrix(1 0 0 -1 0 800)">
			<stop  offset="0" style="stop-color:#210C6D"/>
			<stop  offset="0.9368" style="stop-color:#210C6D;stop-opacity:0"/>
		</linearGradient>
		<polygon class="st102" points="1423.4,112.5 1409.4,120 1421.5,126.9 1436.1,119.1 		"/>
		
			<linearGradient id="SVGID_85_" gradientUnits="userSpaceOnUse" x1="1381.3329" y1="687.3824" x2="1393.3987" y2="714.8177" gradientTransform="matrix(1 0 0 -1 0 800)">
			<stop  offset="0" style="stop-color:#210C6D"/>
			<stop  offset="0.9368" style="stop-color:#210C6D;stop-opacity:0"/>
		</linearGradient>
		<polygon class="st103" points="1387.4,93.2 1373.4,100.8 1385.5,107.6 1400.1,99.8 		"/>
		
			<linearGradient id="SVGID_86_" gradientUnits="userSpaceOnUse" x1="1400.1946" y1="679.0871" x2="1412.2605" y2="706.5225" gradientTransform="matrix(1 0 0 -1 0 800)">
			<stop  offset="0" style="stop-color:#210C6D"/>
			<stop  offset="0.9368" style="stop-color:#210C6D;stop-opacity:0"/>
		</linearGradient>
		<polygon class="st104" points="1405.7,103 1391.6,110.6 1403.8,117.4 1418.3,109.6 		"/>
		
			<linearGradient id="SVGID_87_" gradientUnits="userSpaceOnUse" x1="1394.1786" y1="698.5164" x2="1389.4222" y2="714.2576" gradientTransform="matrix(1 0 0 -1 0 800)">
			<stop  offset="0" style="stop-color:#26FDE4;stop-opacity:0"/>
			<stop  offset="0.3486" style="stop-color:#26FDE4;stop-opacity:0.5"/>
			<stop  offset="1" style="stop-color:#26C3BF;stop-opacity:0.9"/>
		</linearGradient>
		<polygon class="st105" points="1385.8,110.1 1385.8,82 1397.4,75.8 1397.4,103.8 		"/>
		
			<linearGradient id="SVGID_88_" gradientUnits="userSpaceOnUse" x1="1376.7184" y1="700.6076" x2="1386.4557" y2="717.3556" gradientTransform="matrix(1 0 0 -1 0 800)">
			<stop  offset="0" style="stop-color:#26FDE4;stop-opacity:0"/>
			<stop  offset="0.3315" style="stop-color:#26FDE4;stop-opacity:0.4"/>
			<stop  offset="0.6886" style="stop-color:#34FDE4;stop-opacity:0.8069"/>
			<stop  offset="1" style="stop-color:#37FDE4;stop-opacity:0.9"/>
		</linearGradient>
		<polygon class="st106" points="1376,76.5 1376,102.4 1385.8,107.9 1385.8,82 		"/>
		<polygon class="st10" points="1387.3,70.5 1376,76.5 1385.8,82 1397.4,75.8 		"/>
		<g>
			<g>
				
					<linearGradient id="SVGID_89_" gradientUnits="userSpaceOnUse" x1="1376.7836" y1="729.75" x2="1396.6257" y2="729.75" gradientTransform="matrix(1 0 0 -1 0 800)">
					<stop  offset="0" style="stop-color:#26FDE4;stop-opacity:0.1"/>
					<stop  offset="1" style="stop-color:#FFFFFF;stop-opacity:0.9"/>
				</linearGradient>
				<path class="st107" d="M1385.9,75.7L1385.9,75.7l-8.9-5c-0.1,0-0.1-0.1-0.1-0.2s0.1-0.2,0.1-0.2l10.2-5.5c0.1,0,0.2,0,0.2,0
					l9.1,4.8c0.1,0,0.1,0.1,0.1,0.2s0,0.2-0.1,0.2L1385.9,75.7C1385.9,75.7,1385.9,75.7,1385.9,75.7z M1377.5,70.5l8.3,4.7l10-5.4
					l-8.6-4.5L1377.5,70.5z"/>
			</g>
			<g>
				
					<linearGradient id="SVGID_90_" gradientUnits="userSpaceOnUse" x1="1376.7836" y1="732.75" x2="1396.6257" y2="732.75" gradientTransform="matrix(1 0 0 -1 0 800)">
					<stop  offset="0" style="stop-color:#26FDE4;stop-opacity:0.1"/>
					<stop  offset="1" style="stop-color:#FFFFFF;stop-opacity:0.9"/>
				</linearGradient>
				<path class="st108" d="M1385.9,72.7L1385.9,72.7l-8.9-5c-0.1,0-0.1-0.1-0.1-0.2s0.1-0.2,0.1-0.2l10.2-5.5c0.1,0,0.2,0,0.2,0
					l9.1,4.8c0.1,0,0.1,0.1,0.1,0.2s0,0.2-0.1,0.2L1385.9,72.7C1385.9,72.7,1385.9,72.7,1385.9,72.7z M1377.5,67.5l8.3,4.7l10-5.4
					l-8.6-4.5L1377.5,67.5z"/>
			</g>
			<g>
				
					<linearGradient id="SVGID_91_" gradientUnits="userSpaceOnUse" x1="1376.7836" y1="735.75" x2="1396.6257" y2="735.75" gradientTransform="matrix(1 0 0 -1 0 800)">
					<stop  offset="0" style="stop-color:#26FDE4;stop-opacity:0.1"/>
					<stop  offset="1" style="stop-color:#FFFFFF;stop-opacity:0.9"/>
				</linearGradient>
				<path class="st109" d="M1385.9,69.7L1385.9,69.7l-8.9-5c-0.1,0-0.1-0.1-0.1-0.2s0.1-0.2,0.1-0.2l10.2-5.5c0.1,0,0.2,0,0.2,0
					l9.1,4.8c0.1,0,0.1,0.1,0.1,0.2s0,0.2-0.1,0.2L1385.9,69.7C1385.9,69.7,1385.9,69.7,1385.9,69.7z M1377.5,64.5l8.3,4.7l10-5.4
					l-8.6-4.5L1377.5,64.5z"/>
			</g>
		</g>
		
			<linearGradient id="SVGID_92_" gradientUnits="userSpaceOnUse" x1="1411.5782" y1="715.4409" x2="1407.5614" y2="728.735" gradientTransform="matrix(1 0 0 -1 0 800)">
			<stop  offset="0" style="stop-color:#FF99BE;stop-opacity:0"/>
			<stop  offset="1" style="stop-color:#FF99BE;stop-opacity:0.9"/>
		</linearGradient>
		<polygon class="st110" points="1403.6,92.1 1403.6,68.8 1415.2,62.6 1415.2,85.8 		"/>
		
			<linearGradient id="SVGID_93_" gradientUnits="userSpaceOnUse" x1="1414.4419" y1="689.0136" x2="1405.1736" y2="719.6875" gradientTransform="matrix(1 0 0 -1 0 800)">
			<stop  offset="0" style="stop-color:#FF99BE;stop-opacity:0"/>
			<stop  offset="1" style="stop-color:#FF99BE;stop-opacity:0.9"/>
		</linearGradient>
		<polygon class="st111" points="1403.6,126 1403.6,68.8 1415.2,62.6 1415.2,119.8 		"/>
		
			<linearGradient id="SVGID_94_" gradientUnits="userSpaceOnUse" x1="1390.4846" y1="694.3196" x2="1409.6436" y2="727.2729" gradientTransform="matrix(1 0 0 -1 0 800)">
			<stop  offset="0" style="stop-color:#FF99BE;stop-opacity:0"/>
			<stop  offset="0.4782" style="stop-color:#ECA2C1"/>
			<stop  offset="1" style="stop-color:#FF99BE"/>
		</linearGradient>
		<polygon class="st112" points="1393.8,63.3 1393.8,114.3 1403.6,119.8 1403.6,68.8 		"/>
		<polygon class="st69" points="1405.1,57.3 1393.8,63.3 1403.6,68.8 1415.2,62.6 		"/>
		
			<linearGradient id="SVGID_95_" gradientUnits="userSpaceOnUse" x1="1430.186" y1="682.6917" x2="1425.4297" y2="698.4329" gradientTransform="matrix(1 0 0 -1 0 800)">
			<stop  offset="0" style="stop-color:#26FDE4;stop-opacity:0"/>
			<stop  offset="0.3486" style="stop-color:#26FDE4;stop-opacity:0.5"/>
			<stop  offset="1" style="stop-color:#26C3BF;stop-opacity:0.9"/>
		</linearGradient>
		<polygon class="st113" points="1421.8,125.9 1421.8,97.9 1433.4,91.6 1433.4,119.6 		"/>
		
			<linearGradient id="SVGID_96_" gradientUnits="userSpaceOnUse" x1="1412.7317" y1="684.7804" x2="1422.4689" y2="701.5284" gradientTransform="matrix(1 0 0 -1 0 800)">
			<stop  offset="0" style="stop-color:#26FDE4;stop-opacity:0"/>
			<stop  offset="0.3315" style="stop-color:#26FDE4;stop-opacity:0.4"/>
			<stop  offset="0.6886" style="stop-color:#34FDE4;stop-opacity:0.8069"/>
			<stop  offset="1" style="stop-color:#37FDE4;stop-opacity:0.9"/>
		</linearGradient>
		<polygon class="st114" points="1412,92.4 1412,118.2 1421.8,123.7 1421.8,97.9 		"/>
		<polygon class="st10" points="1423.3,86.3 1412,92.4 1421.8,97.9 1433.4,91.6 		"/>
		<g>
			<g>
				
					<linearGradient id="SVGID_97_" gradientUnits="userSpaceOnUse" x1="1394.6166" y1="743.05" x2="1414.459" y2="743.05" gradientTransform="matrix(1 0 0 -1 0 800)">
					<stop  offset="0" style="stop-color:#FFFFFF;stop-opacity:0.1"/>
					<stop  offset="1" style="stop-color:#FFFFFF;stop-opacity:0.9"/>
				</linearGradient>
				<path class="st115" d="M1403.7,62.4L1403.7,62.4l-8.9-5c-0.1,0-0.1-0.1-0.1-0.2s0.1-0.2,0.1-0.2l10.2-5.5c0.1,0,0.2,0,0.2,0
					l9.1,4.8c0.1,0,0.1,0.1,0.1,0.2s0,0.2-0.1,0.2L1403.7,62.4C1403.8,62.4,1403.7,62.4,1403.7,62.4z M1395.4,57.2l8.3,4.7l10-5.4
					l-8.6-4.5L1395.4,57.2z"/>
			</g>
			<g>
				
					<linearGradient id="SVGID_98_" gradientUnits="userSpaceOnUse" x1="1394.6166" y1="746.05" x2="1414.459" y2="746.05" gradientTransform="matrix(1 0 0 -1 0 800)">
					<stop  offset="0" style="stop-color:#FFFFFF;stop-opacity:0.1"/>
					<stop  offset="1" style="stop-color:#FFFFFF;stop-opacity:0.9"/>
				</linearGradient>
				<path class="st116" d="M1403.7,59.4L1403.7,59.4l-8.9-5c-0.1,0-0.1-0.1-0.1-0.2s0.1-0.2,0.1-0.2l10.2-5.5c0.1,0,0.2,0,0.2,0
					l9.1,4.8c0.1,0,0.1,0.1,0.1,0.2s0,0.2-0.1,0.2L1403.7,59.4C1403.8,59.4,1403.7,59.4,1403.7,59.4z M1395.4,54.2l8.3,4.7l10-5.4
					l-8.6-4.5L1395.4,54.2z"/>
			</g>
			<g>
				
					<linearGradient id="SVGID_99_" gradientUnits="userSpaceOnUse" x1="1394.6166" y1="748.95" x2="1414.459" y2="748.95" gradientTransform="matrix(1 0 0 -1 0 800)">
					<stop  offset="0" style="stop-color:#FFFFFF;stop-opacity:0.1"/>
					<stop  offset="1" style="stop-color:#FFFFFF;stop-opacity:0.9"/>
				</linearGradient>
				<path class="st117" d="M1403.7,56.5L1403.7,56.5l-8.9-5c-0.1,0-0.1-0.1-0.1-0.2c0-0.1,0.1-0.2,0.1-0.2l10.2-5.5
					c0.1,0,0.2,0,0.2,0l9.1,4.8c0.1,0,0.1,0.1,0.1,0.2s0,0.2-0.1,0.2L1403.7,56.5C1403.8,56.4,1403.7,56.5,1403.7,56.5z
					 M1395.4,51.3l8.3,4.7l10-5.4l-8.6-4.5L1395.4,51.3z"/>
			</g>
		</g>
		<g>
			<g>
				
					<linearGradient id="SVGID_100_" gradientUnits="userSpaceOnUse" x1="1412.3701" y1="713.55" x2="1432.2123" y2="713.55" gradientTransform="matrix(1 0 0 -1 0 800)">
					<stop  offset="0" style="stop-color:#26FDE4;stop-opacity:0.1"/>
					<stop  offset="1" style="stop-color:#FFFFFF;stop-opacity:0.9"/>
				</linearGradient>
				<path class="st118" d="M1421.4,91.9L1421.4,91.9l-8.9-5c-0.1,0-0.1-0.1-0.1-0.2s0.1-0.2,0.1-0.2l10.2-5.5c0.1,0,0.2,0,0.2,0
					l9.1,4.8c0.1,0,0.1,0.1,0.1,0.2s0,0.2-0.1,0.2L1421.4,91.9C1421.5,91.9,1421.5,91.9,1421.4,91.9z M1413.1,86.7l8.3,4.7l10-5.4
					l-8.6-4.5L1413.1,86.7z"/>
			</g>
			<g>
				
					<linearGradient id="SVGID_101_" gradientUnits="userSpaceOnUse" x1="1412.3701" y1="716.55" x2="1432.2123" y2="716.55" gradientTransform="matrix(1 0 0 -1 0 800)">
					<stop  offset="0" style="stop-color:#26FDE4;stop-opacity:0.1"/>
					<stop  offset="1" style="stop-color:#FFFFFF;stop-opacity:0.9"/>
				</linearGradient>
				<path class="st119" d="M1421.4,88.9L1421.4,88.9l-8.9-5c-0.1,0-0.1-0.1-0.1-0.2s0.1-0.2,0.1-0.2l10.2-5.5c0.1,0,0.2,0,0.2,0
					l9.1,4.8c0.1,0,0.1,0.1,0.1,0.2s0,0.2-0.1,0.2L1421.4,88.9C1421.5,88.9,1421.5,88.9,1421.4,88.9z M1413.1,83.7l8.3,4.7l10-5.4
					l-8.6-4.5L1413.1,83.7z"/>
			</g>
			<g>
				
					<linearGradient id="SVGID_102_" gradientUnits="userSpaceOnUse" x1="1412.3701" y1="719.45" x2="1432.2123" y2="719.45" gradientTransform="matrix(1 0 0 -1 0 800)">
					<stop  offset="0" style="stop-color:#26FDE4;stop-opacity:0.1"/>
					<stop  offset="1" style="stop-color:#FFFFFF;stop-opacity:0.9"/>
				</linearGradient>
				<path class="st120" d="M1421.4,86L1421.4,86l-8.9-5c-0.1,0-0.1-0.1-0.1-0.2s0.1-0.2,0.1-0.2l10.2-5.5c0.1,0,0.2,0,0.2,0l9.1,4.8
					c0.1,0,0.1,0.1,0.1,0.2s0,0.2-0.1,0.2L1421.4,86C1421.5,86,1421.5,86,1421.4,86z M1413.1,80.8l8.3,4.7l10-5.4l-8.6-4.5
					L1413.1,80.8z"/>
			</g>
		</g>
	</g>
</g>
<g>
	
		<linearGradient id="SVGID_103_" gradientUnits="userSpaceOnUse" x1="1007.5881" y1="312.9914" x2="1101.6536" y2="312.9914" gradientTransform="matrix(1.5975 -0.3254 0.3254 -1.1772 -1229.608 1469.6409)">
		<stop  offset="0" style="stop-color:#FFFFFF"/>
		<stop  offset="0.4939" style="stop-color:#71EEFF;stop-opacity:0.2"/>
		<stop  offset="0.6867" style="stop-color:#494EC2;stop-opacity:0.1169"/>
		<stop  offset="0.9627" style="stop-color:#390FAA;stop-opacity:0.1"/>
	</linearGradient>
	<path class="st121" d="M477.3,804.5c-1.1,0-2.2-0.6-2.7-1.6c-0.8-1.5-0.3-3.4,1.2-4.2l159.4-86.8c1.5-0.8,3.4-0.3,4.2,1.2
		s0.3,3.4-1.2,4.2l-159.4,86.8C478.3,804.4,477.8,804.5,477.3,804.5z"/>
</g>
</svg>
