<?xml version="1.0" encoding="UTF-8"?>
<svg width="12px" height="10px" viewBox="0 0 12 10" version="1.1" xmlns="http://www.w3.org/2000/svg" xmlns:xlink="http://www.w3.org/1999/xlink">
    <!-- Generator: Sketch 52.5 (67469) - http://www.bohemiancoding.com/sketch -->
    <title>red packet_icon_best</title>
    <desc>Created with Sketch.</desc>
    <g id="red-packet_icon_best" stroke="none" stroke-width="1" fill="none" fill-rule="evenodd">
        <path d="M6.16970385,1.747509 C6.5817931,1.66372118 6.89698174,1.31665544 6.89698174,0.885753537 C6.89698174,0.394989383 6.49696551,1.50990331e-14 5.99999999,1.50990331e-14 C5.50305881,1.50990331e-14 5.10301824,0.394989383 5.10301824,0.885753537 C5.10301824,1.29270571 5.38184178,1.62783282 5.75756591,1.73559453 L3.57573223,5.51796098 L1.13939148,3.41130266 C1.35758215,3.27961537 1.50304259,3.05217747 1.50304259,2.78889956 C1.50304259,2.38187488 1.16365923,2.05873472 0.751496951,2.05873472 C0.339407699,2.05873472 8.8817842e-16,2.38187488 8.8817842e-16,2.78889956 C8.8817842e-16,3.19582755 0.339407699,3.51899189 0.751496951,3.51899189 C0.86061663,3.51899189 0.957614601,3.4950905 1.05451521,3.45920214 L2.28569575,8.36846285 L9.7142556,8.36846285 L11.1029939,3.51899189 L8.69087224,5.55384936 L6.16970385,1.747509 Z M11.248503,2.05873472 C10.8363408,2.05873472 10.4969574,2.38187488 10.4969574,2.78889956 C10.4969574,3.19582755 10.8363408,3.51899189 11.248503,3.51899189 C11.6605923,3.51899189 12,3.19580338 12,2.78889956 C12,2.38189905 11.6605923,2.05873472 11.248503,2.05873472 Z M9.50000811,8.65216206 L2.49999189,8.65216206 C2.38164706,8.65216206 2.28569575,8.74742933 2.28569575,8.86493044 L2.28569575,9.00676798 C2.28569575,9.12426911 2.38162272,9.2195122 2.49999189,9.2195122 L9.49998378,9.2195122 C9.61832861,9.2195122 9.71427992,9.12426911 9.71427992,9.00676798 L9.71427992,8.86493044 C9.71427992,8.74742933 9.61835294,8.65216206 9.50000811,8.65216206 Z" fill="#FFBB29" fill-rule="nonzero"></path>
    </g>
</svg>