<?xml version="1.0" encoding="UTF-8"?>
<svg width="61px" height="61px" viewBox="0 0 61 61" version="1.1" xmlns="http://www.w3.org/2000/svg" xmlns:xlink="http://www.w3.org/1999/xlink">
    <!-- Generator: Sketch 52.5 (67469) - http://www.bohemiancoding.com/sketch -->
    <title>logo_ues</title>
    <desc>Created with Sketch.</desc>
    <g id="logo_ues" stroke="none" stroke-width="1" fill="none" fill-rule="evenodd">
        <g id="XMLID_580_" transform="translate(4.000000, 0.000000)" fill="#FFFFFF">
            <ellipse id="XMLID_582_" cx="14.1637974" cy="41.0607175" rx="3.60418058" ry="3.62862155"></ellipse>
            <path d="M44.072173,46.0898597 C43.3133982,46.0898597 42.5546233,46.2171797 41.8590797,46.4718198 L36.2947307,35.4586351 C38.6342865,33.8034744 40.1518363,31.0660933 40.1518363,27.9467519 C40.1518363,25.2730308 39.013674,22.7902897 37.1799681,21.135129 L45.2103353,9.48534405 C45.8426477,9.80364418 46.6014226,9.99462426 47.3601974,9.99462426 C49.9526782,9.99462426 52.1025403,7.83018334 52.1025403,5.22012223 C52.1025403,2.61006111 49.9526782,0.44562019 47.3601974,0.44562019 C44.7677166,0.44562019 42.6178546,2.61006111 42.6178546,5.22012223 C42.6178546,6.5569828 43.1869357,7.83018334 44.1354043,8.65776369 L36.105037,20.3075487 C34.6507185,19.3526483 32.8802439,18.716048 30.9833067,18.716048 C27.1262012,18.716048 23.7749456,21.135129 22.4470896,24.5727705 L7.27159239,20.3712087 C7.27159239,20.2438886 7.27159239,20.1165686 7.27159239,20.0529086 C7.27159239,18.0157877 5.6275802,16.424287 3.66741182,16.424287 C1.64401219,16.424287 0.0632312382,18.0794477 0.0632312382,20.0529086 C0.0632312382,22.0900294 1.70724343,23.6815301 3.66741182,23.6815301 C5.05849906,23.6815301 6.32312382,22.8539498 6.89220496,21.6444092 L22.0677021,25.845971 C21.9412397,26.4825713 21.8147772,27.1828316 21.8147772,27.8830919 C21.8147772,32.9758941 25.9248077,37.1137958 30.9833067,37.1137958 C32.5008564,37.1137958 33.8919437,36.7318357 35.1565684,36.0952354 L40.6576862,46.9811 C38.6342865,48.1906406 37.2431993,50.4187415 37.2431993,52.9014826 C37.2431993,56.7210842 40.2782987,59.7767655 44.072173,59.7767655 C47.8660473,59.7767655 50.9011468,56.6574242 50.9011468,52.9014826 C50.9011468,49.145541 47.8660473,46.0898597 44.072173,46.0898597 Z" id="XMLID_581_"></path>
        </g>
    </g>
</svg>