<?xml version="1.0" encoding="UTF-8"?>
<svg width="60px" height="60px" viewBox="0 0 60 60" version="1.1" xmlns="http://www.w3.org/2000/svg" xmlns:xlink="http://www.w3.org/1999/xlink">
    <!-- Generator: Sketch 52.5 (67469) - http://www.bohemiancoding.com/sketch -->
    <title>logo_ues_2</title>
    <desc>Created with Sketch.</desc>
    <g id="logo_ues_2" stroke="none" stroke-width="1" fill="none" fill-rule="evenodd">
        <g id="分组">
            <path d="M0.5,4.0065556 L0.5,55.9934444 C0.5,57.9288641 2.07062553,59.5 4.0065556,59.5 L55.9934444,59.5 C57.9288641,59.5 59.5,57.9293745 59.5,55.9934444 L59.5,4.0065556 C59.5,2.07113589 57.9293745,0.5 55.9934444,0.5 L4.0065556,0.5 C2.07113589,0.5 0.5,2.07062553 0.5,4.0065556 Z" id="路径" stroke="#D4A668" fill="#FFFFFF" fill-rule="nonzero"></path>
            <g id="环球交易所logo" transform="translate(13.000000, 10.000000)" fill="#D4A668">
                <g id="XMLID_580_" transform="translate(0.227577, 0.116219)">
                    <path d="M27.749146,29.6184016 C27.2713988,29.6184016 26.7936517,29.7002204 26.3557168,29.863858 L22.8522379,22.7865327 C24.3252915,21.7228885 25.2807858,19.9637845 25.2807858,17.9592242 C25.2807858,16.2410296 24.5641651,14.6455632 23.4096095,13.581919 L28.4657667,6.09549978 C28.8638893,6.30004675 29.3416364,6.42277494 29.8193836,6.42277494 C31.4516863,6.42277494 32.8053031,5.03185552 32.8053031,3.35457035 C32.8053031,1.67728517 31.4516863,0.286365762 29.8193836,0.286365762 C28.1870809,0.286365762 26.833464,1.67728517 26.833464,3.35457035 C26.833464,4.21366763 27.1917743,5.03185552 27.7889582,5.56367765 L22.7328011,13.0500968 C21.8171191,12.4364559 20.7023758,12.027362 19.5080079,12.027362 C17.07946,12.027362 14.9694102,13.581919 14.1333527,15.7910263 L4.57841003,13.0910062 C4.57841003,13.0091875 4.57841003,12.9273687 4.57841003,12.8864593 C4.57841003,11.5773586 3.54329124,10.5546238 2.30911114,10.5546238 C1.03511879,10.5546238 0.0398122611,11.618268 0.0398122611,12.8864593 C0.0398122611,14.1955599 1.07493105,15.2182948 2.30911114,15.2182948 C3.18498089,15.2182948 3.98122611,14.6864726 4.33953646,13.9091941 L13.8944791,16.6092142 C13.8148546,17.0183081 13.7352301,17.4683115 13.7352301,17.9183148 C13.7352301,21.1910664 16.323027,23.850177 19.5080079,23.850177 C20.4635022,23.850177 21.3393719,23.6047206 22.1356172,23.1956267 L25.5992839,30.1911331 C24.3252915,30.9684116 23.4494218,32.4002404 23.4494218,33.9957068 C23.4494218,36.4502705 25.3604103,38.4139214 27.749146,38.4139214 C30.1378816,38.4139214 32.0488702,36.4093611 32.0488702,33.9957068 C32.0488702,31.5820526 30.1378816,29.6184016 27.749146,29.6184016 Z" id="XMLID_581_"></path>
                    <ellipse id="XMLID_582_" cx="8.91794648" cy="26.3865595" rx="2.26929888" ry="2.33183549"></ellipse>
                </g>
            </g>
        </g>
    </g>
</svg>